<svg id="kity_svg_6" xmlns="http://www.w3.org/2000/svg" xmlns:xlink="http://www.w3.org/1999/xlink" version="1.1" width="425" height="1922" style="background: rgb(251, 251, 251); visibility: visible;" viewBox="0 0 425 1922"><defs id="kity_defs_7"><linearGradient id="kity_linearGradient_17" x1="0" y1="0" x2="0" y2="1"><stop id="kity_stop_18" offset="0" stop-color="rgb(255, 255, 255)"></stop><stop id="kity_stop_19" offset="1" stop-color="rgb(204, 204, 204)"></stop></linearGradient><marker id="kity_marker_2" orient="auto" refX="6" refY="0" viewBox="-7 -7 14 14" markerWidth="7" markerHeight="7" markerUnits="userSpaceOnUse"><path id="kity_path_3" fill="rgb(115, 161, 191)" stroke="none" d="M6,0A6,6,0,1,1,-6,0A6,6,0,1,1,6,0"></path></marker></defs><g id="kity_g_8"><g id="minder1" text-rendering="optimize-speed"><g id="minder_connect_group1"><path id="kity_path_31" fill="none" stroke="rgb(123, 115, 191)" stroke-width="1" d="M204.5,48.5v10h-149.5V66.5"></path><path id="kity_path_33" fill="none" stroke="rgb(123, 115, 191)" stroke-width="1" d="M40.5,92.5V113.5L48.5,113.5"></path><path id="kity_path_35" fill="none" stroke="rgb(123, 115, 191)" stroke-width="1" d="M68.5,122.5V139.5L76.5,139.5"></path><path id="kity_path_37" fill="none" stroke="rgb(123, 115, 191)" stroke-width="1" d="M96.5,148.5V169.5L104.5,169.5"></path><path id="kity_path_39" fill="none" stroke="rgb(123, 115, 191)" stroke-width="1" d="M124.5,182.5V199.5L132.5,199.5"></path><path id="kity_path_41" fill="none" stroke="rgb(123, 115, 191)" stroke-width="1" d="M124.5,182.5V225.5L132.5,225.5"></path><path id="kity_path_43" fill="none" stroke="rgb(123, 115, 191)" stroke-width="1" d="M152.5,234.5V251.5L160.5,251.5"></path><path id="kity_path_45" fill="none" stroke="rgb(123, 115, 191)" stroke-width="1" d="M152.5,234.5V277.5L160.5,277.5"></path><path id="kity_path_47" fill="none" stroke="rgb(123, 115, 191)" stroke-width="1" d="M152.5,234.5V303.5L160.5,303.5"></path><path id="kity_path_49" fill="none" stroke="rgb(123, 115, 191)" stroke-width="1" d="M152.5,234.5V329.5L160.5,329.5"></path><path id="kity_path_51" fill="none" stroke="rgb(123, 115, 191)" stroke-width="1" d="M152.5,234.5V355.5L160.5,355.5"></path><path id="kity_path_53" fill="none" stroke="rgb(123, 115, 191)" stroke-width="1" d="M152.5,234.5V381.5L160.5,381.5"></path><path id="kity_path_55" fill="none" stroke="rgb(123, 115, 191)" stroke-width="1" d="M124.5,182.5V407.5L132.5,407.5"></path><path id="kity_path_57" fill="none" stroke="rgb(123, 115, 191)" stroke-width="1" d="M124.5,182.5V433.5L132.5,433.5"></path><path id="kity_path_59" fill="none" stroke="rgb(123, 115, 191)" stroke-width="1" d="M124.5,182.5V459.5L132.5,459.5"></path><path id="kity_path_61" fill="none" stroke="rgb(123, 115, 191)" stroke-width="1" d="M68.5,122.5V485.5L76.5,485.5"></path><path id="kity_path_63" fill="none" stroke="rgb(123, 115, 191)" stroke-width="1" d="M96.5,494.5V515.5L104.5,515.5"></path><path id="kity_path_65" fill="none" stroke="rgb(123, 115, 191)" stroke-width="1" d="M124.5,528.5V545.5L132.5,545.5"></path><path id="kity_path_67" fill="none" stroke="rgb(123, 115, 191)" stroke-width="1" d="M124.5,528.5V571.5L132.5,571.5"></path><path id="kity_path_69" fill="none" stroke="rgb(123, 115, 191)" stroke-width="1" d="M124.5,528.5V597.5L132.5,597.5"></path><path id="kity_path_71" fill="none" stroke="rgb(123, 115, 191)" stroke-width="1" d="M124.5,528.5V623.5L132.5,623.5"></path><path id="kity_path_73" fill="none" stroke="rgb(123, 115, 191)" stroke-width="1" d="M124.5,528.5V649.5L132.5,649.5"></path><path id="kity_path_75" fill="none" stroke="rgb(123, 115, 191)" stroke-width="1" d="M40.5,92.5V675.5L48.5,675.5"></path><path id="kity_path_77" fill="none" stroke="rgb(123, 115, 191)" stroke-width="1" d="M68.5,684.5V705.5L76.5,705.5"></path><path id="kity_path_79" fill="none" stroke="rgb(123, 115, 191)" stroke-width="1" d="M68.5,684.5V739.5L76.5,739.5"></path><path id="kity_path_81" fill="none" stroke="rgb(123, 115, 191)" stroke-width="1" d="M68.5,684.5V773.5L76.5,773.5"></path><path id="kity_path_83" fill="none" stroke="rgb(123, 115, 191)" stroke-width="1" d="M68.5,684.5V807.5L76.5,807.5"></path><path id="kity_path_85" fill="none" stroke="rgb(123, 115, 191)" stroke-width="1" d="M40.5,92.5V837.5L48.5,837.5"></path><path id="kity_path_87" fill="none" stroke="rgb(123, 115, 191)" stroke-width="1" d="M68.5,846.5V867.5L76.5,867.5"></path><path id="kity_path_89" fill="none" stroke="rgb(123, 115, 191)" stroke-width="1" d="M40.5,92.5V897.5L48.5,897.5"></path><path id="kity_path_91" fill="none" stroke="rgb(123, 115, 191)" stroke-width="1" d="M68.5,906.5V923.5L76.5,923.5"></path><path id="kity_path_93" fill="none" stroke="rgb(123, 115, 191)" stroke-width="1" d="M96.5,932.5V953.5L104.5,953.5"></path><path id="kity_path_95" fill="none" stroke="rgb(123, 115, 191)" stroke-width="1" d="M124.5,966.5V983.5L132.5,983.5"></path><path id="kity_path_97" fill="none" stroke="rgb(123, 115, 191)" stroke-width="1" d="M152.5,992.5V1013.5L160.5,1013.5"></path><path id="kity_path_99" fill="none" stroke="rgb(123, 115, 191)" stroke-width="1" d="M152.5,992.5V1047.5L160.5,1047.5"></path><path id="kity_path_101" fill="none" stroke="rgb(123, 115, 191)" stroke-width="1" d="M152.5,992.5V1081.5L160.5,1081.5"></path><path id="kity_path_103" fill="none" stroke="rgb(123, 115, 191)" stroke-width="1" d="M152.5,992.5V1115.5L160.5,1115.5"></path><path id="kity_path_105" fill="none" stroke="rgb(123, 115, 191)" stroke-width="1" d="M152.5,992.5V1149.5L160.5,1149.5"></path><path id="kity_path_107" fill="none" stroke="rgb(123, 115, 191)" stroke-width="1" d="M152.5,992.5V1183.5L160.5,1183.5"></path><path id="kity_path_109" fill="none" stroke="rgb(123, 115, 191)" stroke-width="1" d="M152.5,992.5V1217.5L160.5,1217.5"></path><path id="kity_path_111" fill="none" stroke="rgb(123, 115, 191)" stroke-width="1" d="M152.5,992.5V1251.5L160.5,1251.5"></path><path id="kity_path_113" fill="none" stroke="rgb(123, 115, 191)" stroke-width="1" d="M152.5,992.5V1285.5L160.5,1285.5"></path><path id="kity_path_115" fill="none" stroke="rgb(123, 115, 191)" stroke-width="1" d="M152.5,992.5V1319.5L160.5,1319.5"></path><path id="kity_path_117" fill="none" stroke="rgb(123, 115, 191)" stroke-width="1" d="M96.5,932.5V1353.5L104.5,1353.5"></path><path id="kity_path_119" fill="none" stroke="rgb(123, 115, 191)" stroke-width="1" d="M96.5,932.5V1387.5L104.5,1387.5"></path><path id="kity_path_121" fill="none" stroke="rgb(123, 115, 191)" stroke-width="1" d="M96.5,932.5V1421.5L104.5,1421.5"></path><path id="kity_path_123" fill="none" stroke="rgb(123, 115, 191)" stroke-width="1" d="M96.5,932.5V1455.5L104.5,1455.5"></path><path id="kity_path_125" fill="none" stroke="rgb(123, 115, 191)" stroke-width="1" d="M96.5,932.5V1489.5L104.5,1489.5"></path><path id="kity_path_127" fill="none" stroke="rgb(123, 115, 191)" stroke-width="1" d="M96.5,932.5V1523.5L104.5,1523.5"></path><path id="kity_path_129" fill="none" stroke="rgb(123, 115, 191)" stroke-width="1" d="M96.5,932.5V1557.5L104.5,1557.5"></path><path id="kity_path_131" fill="none" stroke="rgb(123, 115, 191)" stroke-width="1" d="M96.5,932.5V1591.5L104.5,1591.5"></path><path id="kity_path_133" fill="none" stroke="rgb(123, 115, 191)" stroke-width="1" d="M96.5,932.5V1625.5L104.5,1625.5"></path><path id="kity_path_135" fill="none" stroke="rgb(123, 115, 191)" stroke-width="1" d="M96.5,932.5V1659.5L104.5,1659.5"></path><path id="kity_path_137" fill="none" stroke="rgb(123, 115, 191)" stroke-width="1" d="M96.5,932.5V1693.5L104.5,1693.5"></path><path id="kity_path_139" fill="none" stroke="rgb(123, 115, 191)" stroke-width="1" d="M68.5,906.5V1723.5L76.5,1723.5"></path><path id="kity_path_141" fill="none" stroke="rgb(123, 115, 191)" stroke-width="1" d="M96.5,1732.5V1753.5L104.5,1753.5"></path><path id="kity_path_143" fill="none" stroke="rgb(123, 115, 191)" stroke-width="1" d="M96.5,1732.5V1787.5L104.5,1787.5"></path><path id="kity_path_145" fill="none" stroke="rgb(123, 115, 191)" stroke-width="1" d="M96.5,1732.5V1821.5L104.5,1821.5"></path><path id="kity_path_147" fill="none" stroke="rgb(123, 115, 191)" stroke-width="1" d="M40.5,92.5V1855.5L48.5,1855.5"></path><path id="kity_path_149" fill="none" stroke="rgb(123, 115, 191)" stroke-width="1" d="M40.5,92.5V1889.5L48.5,1889.5"></path><path id="kity_path_151" fill="none" stroke="rgb(123, 115, 191)" stroke-width="1" d="M204.5,48.5v10h136.5V66.5"></path><path id="kity_path_153" fill="none" stroke="rgb(123, 115, 191)" stroke-width="1" d="M312.5,92.5V117.5L320.5,117.5"></path><path id="kity_path_155" fill="none" stroke="rgb(123, 115, 191)" stroke-width="1" d="M312.5,92.5V151.5L320.5,151.5"></path><path id="kity_path_157" fill="none" stroke="rgb(123, 115, 191)" stroke-width="1" d="M312.5,92.5V185.5L320.5,185.5"></path><path id="kity_path_159" fill="none" stroke="rgb(123, 115, 191)" stroke-width="1" d="M312.5,92.5V219.5L320.5,219.5"></path><path id="kity_path_161" fill="none" stroke="rgb(123, 115, 191)" stroke-width="1" d="M312.5,92.5V253.5L320.5,253.5"></path><path id="kity_path_163" fill="none" stroke="rgb(123, 115, 191)" stroke-width="1" d="M312.5,92.5V287.5L320.5,287.5"></path><path id="kity_path_165" fill="none" stroke="rgb(123, 115, 191)" stroke-width="1" d="M312.5,92.5V321.5L320.5,321.5"></path><path id="kity_path_167" fill="none" stroke="rgb(123, 115, 191)" stroke-width="1" d="M312.5,92.5V355.5L320.5,355.5"></path><path id="kity_path_169" fill="none" stroke="rgb(123, 115, 191)" stroke-width="1" d="M312.5,92.5V389.5L320.5,389.5"></path></g><g id="minder_node1"><path id="node_outline1" fill="rgb(123, 115, 191)" stroke="rgb(61, 57, 96)" d="M181.5,20.5h46a5,5,0,0,1,5,5v18a5,5,0,0,1,-5,5h-46a5,5,0,0,1,-5,-5v-18a5,5,0,0,1,5,-5z" stroke-width="3"></path><g id="node_text1" fill="white"><text id="kity_text_22" text-rendering="inherit" font-size="16" dy=".8em" y="24.09999990463257" x="188.5">闪帮</text></g></g><g id="kity_g_12"><path id="kity_path_13" fill="none" stroke="none" d="M188.5,34.5h0v0h0z"></path></g><g id="kity_g_14"><path id="kity_path_15" fill="none" stroke="none" d="M188.5,34.5h0v0h0z"></path><path id="kity_path_16" fill="none" stroke="none"></path></g><g id="minder_node2"><g id="node_expander60" style="cursor: pointer;"><path id="kity_path_816" fill="white" stroke="gray" d="M61,59.5A6,6,0,1,1,49,59.5A6,6,0,1,1,61,59.5"></path><path id="kity_path_817" fill="none" stroke="gray" d="M50.5,59.5L59.5,59.5"></path></g><path id="node_outline61" fill="#4bacc6" stroke="rgb(123, 115, 191)" d="M23.5,66.5h63a3,3,0,0,1,3,3v20a3,3,0,0,1,-3,3h-63a3,3,0,0,1,-3,-3v-20a3,3,0,0,1,3,-3z" stroke-width="1"></path><g id="node_text61" fill="#ffffff"><text id="kity_text_289" text-rendering="inherit" font-size="14" dy=".8em" font-weight="bold" y="70.40000009536743" x="40.5">主体</text></g></g><g id="minder_node3"><g id="node_expander21" style="cursor: pointer;"><path id="kity_path_699" fill="white" stroke="gray" d="M48.5,113.5A6,6,0,1,1,36.5,113.5A6,6,0,1,1,48.5,113.5"></path><path id="kity_path_700" fill="none" stroke="gray" d="M38,113.5L47,113.5"></path></g><path id="node_outline22" fill="#00b0f0" stroke="none" d="M53.5,104.5h25a5,5,0,0,1,5,5v8a5,5,0,0,1,-5,5h-25a5,5,0,0,1,-5,-5v-8a5,5,0,0,1,5,-5z"></path><g id="node_text22" fill="#ffffff"><text id="kity_text_211" text-rendering="inherit" font-size="12" dy=".8em" font-weight="bold" y="105.70000004768372" x="53.5">首页</text></g></g><g id="minder_node4"><g id="node_expander13" style="cursor: pointer;"><path id="kity_path_675" fill="white" stroke="gray" d="M76.5,139.5A6,6,0,1,1,64.5,139.5A6,6,0,1,1,76.5,139.5"></path><path id="kity_path_676" fill="none" stroke="gray" d="M66,139.5L75,139.5"></path></g><path id="node_outline14" fill="#4f81bd" stroke="none" d="M81.5,130.5h49a5,5,0,0,1,5,5v8a5,5,0,0,1,-5,5h-49a5,5,0,0,1,-5,-5v-8a5,5,0,0,1,5,-5z"></path><g id="node_text14" fill="#ffffff"><text id="kity_text_195" text-rendering="inherit" font-size="12" dy=".8em" font-weight="bold" y="131.70000004768372" x="81.5">闪友排行</text></g></g><g id="minder_node5"><g id="node_expander12" style="cursor: pointer;"><path id="kity_path_672" fill="white" stroke="gray" d="M104.5,169.5A6,6,0,1,1,92.5,169.5A6,6,0,1,1,104.5,169.5"></path><path id="kity_path_673" fill="none" stroke="gray" d="M94,169.5L103,169.5"></path></g><path id="node_outline13" fill="none" stroke="none" d="M109.5,156.5h75a5,5,0,0,1,5,5v16a5,5,0,0,1,-5,5h-75a5,5,0,0,1,-5,-5v-16a5,5,0,0,1,5,-5z"></path><g id="node_text13" fill="black"><text id="kity_text_193" text-rendering="inherit" font-size="12" dy=".8em" y="161.70000004768372" x="134.5">用户详情</text></g><g id="node_progress1"><path id="kity_path_311" fill="#FFED83" stroke="none" d="M129,170A9,9,0,1,1,111,170A9,9,0,1,1,129,170"></path><path id="kity_path_312" fill="#43BC00" stroke="none" d="M120,170L129,170A9,9,0,0,0,116.5558491087142,161.68508420739843A9,9,0,0,0,113.63603896932108,176.36396103067892L120,170z"></path><path id="kity_path_313" fill="#8E8E8E" stroke="none" d="M120,163c4.418,0,8,3.582,8,8h1c0,-5.523,-3.477,-10,-9,-10S111,165.477,111,171h1C112,166.582,115.582,163,120,163z"></path><path id="kity_path_315" fill="#EEE" stroke="none" d="M135.812,177.896l-6.75,6.75l-4.5,-4.5L126.25,178.459l2.812,2.803l5.062,-5.053L135.812,177.896z" display="none"></path><path id="kity_path_314" fill="url(#kity_linearGradient_17)" stroke="none" d="M120,160C114.477,160,110,164.477,110,170c0,5.523,4.477,10,10,10s10,-4.477,10,-10C130,164.477,125.523,160,120,160zM120,178c-4.418,0,-8,-3.582,-8,-8s3.582,-8,8,-8s8,3.582,8,8S124.418,178,120,178z"></path></g></g><g id="minder_node6"><g id="node_expander1" display="none" style="cursor: pointer;"><path id="kity_path_639" fill="white" stroke="gray" d="M132.5,199.5A6,6,0,1,1,120.5,199.5A6,6,0,1,1,132.5,199.5"></path><path id="kity_path_640" fill="none" stroke="gray"></path></g><path id="node_outline2" fill="none" stroke="none" d="M137.5,190.5h50a5,5,0,0,1,5,5v8a5,5,0,0,1,-5,5h-50a5,5,0,0,1,-5,-5v-8a5,5,0,0,1,5,-5z"></path><g id="node_text2" fill="black"><text id="kity_text_171" text-rendering="inherit" font-size="12" dy=".8em" y="191.70000004768372" x="137.5">基本信息</text></g></g><g id="minder_node7"><g id="node_expander8" style="cursor: pointer;"><path id="kity_path_660" fill="white" stroke="gray" d="M132.5,225.5A6,6,0,1,1,120.5,225.5A6,6,0,1,1,132.5,225.5"></path><path id="kity_path_661" fill="none" stroke="gray" d="M122,225.5L131,225.5"></path></g><path id="node_outline9" fill="none" stroke="none" d="M137.5,216.5h49a5,5,0,0,1,5,5v8a5,5,0,0,1,-5,5h-49a5,5,0,0,1,-5,-5v-8a5,5,0,0,1,5,-5z"></path><g id="node_text9" fill="black"><text id="kity_text_185" text-rendering="inherit" font-size="12" dy=".8em" y="217.70000004768372" x="137.5">更多功能</text></g></g><g id="minder_node8"><g id="node_expander2" display="none" style="cursor: pointer;"><path id="kity_path_642" fill="white" stroke="gray" d="M160.5,251.5A6,6,0,1,1,148.5,251.5A6,6,0,1,1,160.5,251.5"></path><path id="kity_path_643" fill="none" stroke="gray"></path></g><path id="node_outline3" fill="none" stroke="none" d="M165.5,242.5h62a5,5,0,0,1,5,5v8a5,5,0,0,1,-5,5h-62a5,5,0,0,1,-5,-5v-8a5,5,0,0,1,5,-5z"></path><g id="node_text3" fill="black"><text id="kity_text_173" text-rendering="inherit" font-size="12" dy=".8em" y="243.70000004768372" x="165.5">加入黑名单</text></g></g><g id="minder_node9"><g id="node_expander3" display="none" style="cursor: pointer;"><path id="kity_path_645" fill="white" stroke="gray" d="M160.5,277.5A6,6,0,1,1,148.5,277.5A6,6,0,1,1,160.5,277.5"></path><path id="kity_path_646" fill="none" stroke="gray"></path></g><path id="node_outline4" fill="none" stroke="none" d="M165.5,268.5h26a5,5,0,0,1,5,5v8a5,5,0,0,1,-5,5h-26a5,5,0,0,1,-5,-5v-8a5,5,0,0,1,5,-5z"></path><g id="node_text4" fill="black"><text id="kity_text_175" text-rendering="inherit" font-size="12" dy=".8em" y="269.7000000476837" x="165.5">举报</text></g></g><g id="minder_node10"><g id="node_expander4" display="none" style="cursor: pointer;"><path id="kity_path_648" fill="white" stroke="gray" d="M160.5,303.5A6,6,0,1,1,148.5,303.5A6,6,0,1,1,160.5,303.5"></path><path id="kity_path_649" fill="none" stroke="gray"></path></g><path id="node_outline5" fill="none" stroke="none" d="M165.5,294.5h26a5,5,0,0,1,5,5v8a5,5,0,0,1,-5,5h-26a5,5,0,0,1,-5,-5v-8a5,5,0,0,1,5,-5z"></path><g id="node_text5" fill="black"><text id="kity_text_177" text-rendering="inherit" font-size="12" dy=".8em" y="295.7000000476837" x="165.5">分享</text></g></g><g id="minder_node11"><g id="node_expander5" display="none" style="cursor: pointer;"><path id="kity_path_651" fill="white" stroke="gray" d="M160.5,329.5A6,6,0,1,1,148.5,329.5A6,6,0,1,1,160.5,329.5"></path><path id="kity_path_652" fill="none" stroke="gray"></path></g><path id="node_outline6" fill="none" stroke="none" d="M165.5,320.5h26a5,5,0,0,1,5,5v8a5,5,0,0,1,-5,5h-26a5,5,0,0,1,-5,-5v-8a5,5,0,0,1,5,-5z"></path><g id="node_text6" fill="black"><text id="kity_text_179" text-rendering="inherit" font-size="12" dy=".8em" y="321.7000000476837" x="165.5">相册</text></g></g><g id="minder_node12"><g id="node_expander6" display="none" style="cursor: pointer;"><path id="kity_path_654" fill="white" stroke="gray" d="M160.5,355.5A6,6,0,1,1,148.5,355.5A6,6,0,1,1,160.5,355.5"></path><path id="kity_path_655" fill="none" stroke="gray"></path></g><path id="node_outline7" fill="none" stroke="none" d="M165.5,346.5h24a5,5,0,0,1,5,5v8a5,5,0,0,1,-5,5h-24a5,5,0,0,1,-5,-5v-8a5,5,0,0,1,5,-5z"></path><g id="node_text7" fill="black"><text id="kity_text_181" text-rendering="inherit" font-size="12" dy=".8em" y="347.7000000476837" x="165.5">邮箱</text></g></g><g id="minder_node13"><g id="node_expander7" display="none" style="cursor: pointer;"><path id="kity_path_657" fill="white" stroke="gray" d="M160.5,381.5A6,6,0,1,1,148.5,381.5A6,6,0,1,1,160.5,381.5"></path><path id="kity_path_658" fill="none" stroke="gray"></path></g><path id="node_outline8" fill="none" stroke="none" d="M165.5,372.5h26a5,5,0,0,1,5,5v8a5,5,0,0,1,-5,5h-26a5,5,0,0,1,-5,-5v-8a5,5,0,0,1,5,-5z"></path><g id="node_text8" fill="black"><text id="kity_text_183" text-rendering="inherit" font-size="12" dy=".8em" y="373.7000000476837" x="165.5">拨号</text></g></g><g id="minder_node14"><g id="node_expander9" display="none" style="cursor: pointer;"><path id="kity_path_663" fill="white" stroke="gray" d="M132.5,407.5A6,6,0,1,1,120.5,407.5A6,6,0,1,1,132.5,407.5"></path><path id="kity_path_664" fill="none" stroke="gray"></path></g><path id="node_outline10" fill="none" stroke="none" d="M137.5,398.5h61a5,5,0,0,1,5,5v8a5,5,0,0,1,-5,5h-61a5,5,0,0,1,-5,-5v-8a5,5,0,0,1,5,-5z"></path><g id="node_text10" fill="black"><text id="kity_text_187" text-rendering="inherit" font-size="12" dy=".8em" y="399.7000000476837" x="137.5">发布的悬赏</text></g></g><g id="minder_node15"><g id="node_expander10" display="none" style="cursor: pointer;"><path id="kity_path_666" fill="white" stroke="gray" d="M132.5,433.5A6,6,0,1,1,120.5,433.5A6,6,0,1,1,132.5,433.5"></path><path id="kity_path_667" fill="none" stroke="gray"></path></g><path id="node_outline11" fill="none" stroke="none" d="M137.5,424.5h62a5,5,0,0,1,5,5v8a5,5,0,0,1,-5,5h-62a5,5,0,0,1,-5,-5v-8a5,5,0,0,1,5,-5z"></path><g id="node_text11" fill="black"><text id="kity_text_189" text-rendering="inherit" font-size="12" dy=".8em" y="425.7000000476837" x="137.5">获得的评价</text></g></g><g id="minder_node16"><g id="node_expander11" display="none" style="cursor: pointer;"><path id="kity_path_669" fill="white" stroke="gray" d="M132.5,459.5A6,6,0,1,1,120.5,459.5A6,6,0,1,1,132.5,459.5"></path><path id="kity_path_670" fill="none" stroke="gray"></path></g><path id="node_outline12" fill="none" stroke="none" d="M137.5,450.5h50a5,5,0,0,1,5,5v8a5,5,0,0,1,-5,5h-50a5,5,0,0,1,-5,-5v-8a5,5,0,0,1,5,-5z"></path><g id="node_text12" fill="black"><text id="kity_text_191" text-rendering="inherit" font-size="12" dy=".8em" y="451.7000000476837" x="137.5">发起会话</text></g></g><g id="minder_node17"><g id="node_expander20" style="cursor: pointer;"><path id="kity_path_696" fill="white" stroke="gray" d="M76.5,485.5A6,6,0,1,1,64.5,485.5A6,6,0,1,1,76.5,485.5"></path><path id="kity_path_697" fill="none" stroke="gray" d="M66,485.5L75,485.5"></path></g><path id="node_outline21" fill="#4f81bd" stroke="none" d="M81.5,476.5h50a5,5,0,0,1,5,5v8a5,5,0,0,1,-5,5h-50a5,5,0,0,1,-5,-5v-8a5,5,0,0,1,5,-5z"></path><g id="node_text21" fill="#ffffff"><text id="kity_text_209" text-rendering="inherit" font-size="12" dy=".8em" font-weight="bold" y="477.7000000476837" x="81.5">悬赏列表</text></g></g><g id="minder_node18"><g id="node_expander19" style="cursor: pointer;"><path id="kity_path_693" fill="white" stroke="gray" d="M104.5,515.5A6,6,0,1,1,92.5,515.5A6,6,0,1,1,104.5,515.5"></path><path id="kity_path_694" fill="none" stroke="gray" d="M94,515.5L103,515.5"></path></g><path id="node_outline20" fill="none" stroke="none" d="M109.5,502.5h75a5,5,0,0,1,5,5v16a5,5,0,0,1,-5,5h-75a5,5,0,0,1,-5,-5v-16a5,5,0,0,1,5,-5z"></path><g id="node_text20" fill="black"><text id="kity_text_207" text-rendering="inherit" font-size="12" dy=".8em" y="507.7000000476837" x="134.5">悬赏详情</text></g><g id="node_progress2"><path id="kity_path_317" fill="#FFED83" stroke="none" d="M129,516A9,9,0,1,1,111,516A9,9,0,1,1,129,516"></path><path id="kity_path_318" fill="#43BC00" stroke="none" d="M120,516L129,516A9,9,0,0,0,116.5558491087142,507.6850842073984A9,9,0,0,0,113.63603896932108,522.363961030679L120,516z"></path><path id="kity_path_319" fill="#8E8E8E" stroke="none" d="M120,509c4.418,0,8,3.582,8,8h1c0,-5.523,-3.477,-10,-9,-10S111,511.477,111,517h1C112,512.582,115.582,509,120,509z"></path><path id="kity_path_321" fill="#EEE" stroke="none" d="M135.812,523.896l-6.75,6.75l-4.5,-4.5L126.25,524.459l2.812,2.803l5.062,-5.053L135.812,523.896z" display="none"></path><path id="kity_path_320" fill="url(#kity_linearGradient_17)" stroke="none" d="M120,506C114.477,506,110,510.477,110,516c0,5.523,4.477,10,10,10s10,-4.477,10,-10C130,510.477,125.523,506,120,506zM120,524c-4.418,0,-8,-3.582,-8,-8s3.582,-8,8,-8s8,3.582,8,8S124.418,524,120,524z"></path></g></g><g id="minder_node19"><g id="node_expander14" display="none" style="cursor: pointer;"><path id="kity_path_678" fill="white" stroke="gray" d="M132.5,545.5A6,6,0,1,1,120.5,545.5A6,6,0,1,1,132.5,545.5"></path><path id="kity_path_679" fill="none" stroke="gray"></path></g><path id="node_outline15" fill="none" stroke="none" d="M137.5,536.5h25a5,5,0,0,1,5,5v8a5,5,0,0,1,-5,5h-25a5,5,0,0,1,-5,-5v-8a5,5,0,0,1,5,-5z"></path><g id="node_text15" fill="black"><text id="kity_text_197" text-rendering="inherit" font-size="12" dy=".8em" y="537.7000000476837" x="137.5">用户</text></g></g><g id="minder_node20"><g id="node_expander15" display="none" style="cursor: pointer;"><path id="kity_path_681" fill="white" stroke="gray" d="M132.5,571.5A6,6,0,1,1,120.5,571.5A6,6,0,1,1,132.5,571.5"></path><path id="kity_path_682" fill="none" stroke="gray"></path></g><path id="node_outline16" fill="none" stroke="none" d="M137.5,562.5h50a5,5,0,0,1,5,5v8a5,5,0,0,1,-5,5h-50a5,5,0,0,1,-5,-5v-8a5,5,0,0,1,5,-5z"></path><g id="node_text16" fill="black"><text id="kity_text_199" text-rendering="inherit" font-size="12" dy=".8em" y="563.7000000476837" x="137.5">相关信息</text></g></g><g id="minder_node21"><g id="node_expander16" display="none" style="cursor: pointer;"><path id="kity_path_684" fill="white" stroke="gray" d="M132.5,597.5A6,6,0,1,1,120.5,597.5A6,6,0,1,1,132.5,597.5"></path><path id="kity_path_685" fill="none" stroke="gray"></path></g><path id="node_outline17" fill="none" stroke="none" d="M137.5,588.5h25a5,5,0,0,1,5,5v8a5,5,0,0,1,-5,5h-25a5,5,0,0,1,-5,-5v-8a5,5,0,0,1,5,-5z"></path><g id="node_text17" fill="black"><text id="kity_text_201" text-rendering="inherit" font-size="12" dy=".8em" y="589.7000000476837" x="137.5">图片</text></g></g><g id="minder_node22"><g id="node_expander17" display="none" style="cursor: pointer;"><path id="kity_path_687" fill="white" stroke="gray" d="M132.5,623.5A6,6,0,1,1,120.5,623.5A6,6,0,1,1,132.5,623.5"></path><path id="kity_path_688" fill="none" stroke="gray"></path></g><path id="node_outline18" fill="none" stroke="none" d="M137.5,614.5h134a5,5,0,0,1,5,5v8a5,5,0,0,1,-5,5h-134a5,5,0,0,1,-5,-5v-8a5,5,0,0,1,5,-5z"></path><g id="node_text18" fill="black"><text id="kity_text_203" text-rendering="inherit" font-size="12" dy=".8em" y="615.7000000476837" x="137.5">点赞、收藏、分享、评论</text></g></g><g id="minder_node23"><g id="node_expander18" display="none" style="cursor: pointer;"><path id="kity_path_690" fill="white" stroke="gray" d="M132.5,649.5A6,6,0,1,1,120.5,649.5A6,6,0,1,1,132.5,649.5"></path><path id="kity_path_691" fill="none" stroke="gray"></path></g><path id="node_outline19" fill="none" stroke="none" d="M137.5,640.5h49a5,5,0,0,1,5,5v8a5,5,0,0,1,-5,5h-49a5,5,0,0,1,-5,-5v-8a5,5,0,0,1,5,-5z"></path><g id="node_text19" fill="black"><text id="kity_text_205" text-rendering="inherit" font-size="12" dy=".8em" y="641.7000000476837" x="137.5">接下悬赏</text></g></g><g id="minder_node24"><g id="node_expander26" style="cursor: pointer;"><path id="kity_path_714" fill="white" stroke="gray" d="M48.5,675.5A6,6,0,1,1,36.5,675.5A6,6,0,1,1,48.5,675.5"></path><path id="kity_path_715" fill="none" stroke="gray" d="M38,675.5L47,675.5"></path></g><path id="node_outline27" fill="#00b0f0" stroke="none" d="M53.5,666.5h25a5,5,0,0,1,5,5v8a5,5,0,0,1,-5,5h-25a5,5,0,0,1,-5,-5v-8a5,5,0,0,1,5,-5z"></path><g id="node_text27" fill="#ffffff"><text id="kity_text_221" text-rendering="inherit" font-size="12" dy=".8em" font-weight="bold" y="667.7000000476837" x="53.5">附近</text></g></g><g id="minder_node25"><g id="node_expander22" display="none" style="cursor: pointer;"><path id="kity_path_702" fill="white" stroke="gray" d="M76.5,705.5A6,6,0,1,1,64.5,705.5A6,6,0,1,1,76.5,705.5"></path><path id="kity_path_703" fill="none" stroke="gray"></path></g><path id="node_outline23" fill="none" stroke="none" d="M81.5,692.5h62a5,5,0,0,1,5,5v16a5,5,0,0,1,-5,5h-62a5,5,0,0,1,-5,-5v-16a5,5,0,0,1,5,-5z"></path><g id="node_text23" fill="black"><text id="kity_text_213" text-rendering="inherit" font-size="12" dy=".8em" y="697.7000000476837" x="106.5">轮播图</text></g><g id="node_progress3"><path id="kity_path_323" fill="#FFED83" stroke="none" d="M101,706A9,9,0,1,1,83,706A9,9,0,1,1,101,706"></path><path id="kity_path_324" fill="#43BC00" stroke="none" d="M92,706L101,706A9,9,0,0,0,98.36396103067892,699.636038969321A9,9,0,0,0,92,697L92,706z"></path><path id="kity_path_325" fill="#8E8E8E" stroke="none" d="M92,699c4.418,0,8,3.582,8,8h1c0,-5.523,-3.477,-10,-9,-10S83,701.477,83,707h1C84,702.582,87.582,699,92,699z"></path><path id="kity_path_327" fill="#EEE" stroke="none" d="M107.812,713.896l-6.75,6.75l-4.5,-4.5L98.25,714.459l2.812,2.803l5.062,-5.053L107.812,713.896z" display="none"></path><path id="kity_path_326" fill="url(#kity_linearGradient_17)" stroke="none" d="M92,696C86.477,696,82,700.477,82,706c0,5.523,4.477,10,10,10s10,-4.477,10,-10C102,700.477,97.523,696,92,696zM92,714c-4.418,0,-8,-3.582,-8,-8s3.582,-8,8,-8s8,3.582,8,8S96.418,714,92,714z"></path></g></g><g id="minder_node26"><g id="node_expander23" display="none" style="cursor: pointer;"><path id="kity_path_705" fill="white" stroke="gray" d="M76.5,739.5A6,6,0,1,1,64.5,739.5A6,6,0,1,1,76.5,739.5"></path><path id="kity_path_706" fill="none" stroke="gray"></path></g><path id="node_outline24" fill="none" stroke="none" d="M81.5,726.5h74a5,5,0,0,1,5,5v16a5,5,0,0,1,-5,5h-74a5,5,0,0,1,-5,-5v-16a5,5,0,0,1,5,-5z"></path><g id="node_text24" fill="black"><text id="kity_text_215" text-rendering="inherit" font-size="12" dy=".8em" y="731.7000000476837" x="106.5">附近的人</text></g><g id="node_progress4"><path id="kity_path_329" fill="#FFED83" stroke="none" d="M101,740A9,9,0,1,1,83,740A9,9,0,1,1,101,740"></path><path id="kity_path_330" fill="#43BC00" stroke="none" d="M92,740L101,740A9,9,0,0,0,98.36396103067892,733.636038969321A9,9,0,0,0,92,731L92,740z"></path><path id="kity_path_331" fill="#8E8E8E" stroke="none" d="M92,733c4.418,0,8,3.582,8,8h1c0,-5.523,-3.477,-10,-9,-10S83,735.477,83,741h1C84,736.582,87.582,733,92,733z"></path><path id="kity_path_333" fill="#EEE" stroke="none" d="M107.812,747.896l-6.75,6.75l-4.5,-4.5L98.25,748.459l2.812,2.803l5.062,-5.053L107.812,747.896z" display="none"></path><path id="kity_path_332" fill="url(#kity_linearGradient_17)" stroke="none" d="M92,730C86.477,730,82,734.477,82,740c0,5.523,4.477,10,10,10s10,-4.477,10,-10C102,734.477,97.523,730,92,730zM92,748c-4.418,0,-8,-3.582,-8,-8s3.582,-8,8,-8s8,3.582,8,8S96.418,748,92,748z"></path></g></g><g id="minder_node27"><g id="node_expander24" display="none" style="cursor: pointer;"><path id="kity_path_708" fill="white" stroke="gray" d="M76.5,773.5A6,6,0,1,1,64.5,773.5A6,6,0,1,1,76.5,773.5"></path><path id="kity_path_709" fill="none" stroke="gray"></path></g><path id="node_outline25" fill="none" stroke="none" d="M81.5,760.5h85a5,5,0,0,1,5,5v16a5,5,0,0,1,-5,5h-85a5,5,0,0,1,-5,-5v-16a5,5,0,0,1,5,-5z"></path><g id="node_text25" fill="black"><text id="kity_text_217" text-rendering="inherit" font-size="12" dy=".8em" y="765.7000000476837" x="106.5">附近的悬赏</text></g><g id="node_progress5"><path id="kity_path_335" fill="#FFED83" stroke="none" d="M101,774A9,9,0,1,1,83,774A9,9,0,1,1,101,774"></path><path id="kity_path_336" fill="#43BC00" stroke="none" d="M92,774L101,774A9,9,0,0,0,98.36396103067892,767.636038969321A9,9,0,0,0,92,765L92,774z"></path><path id="kity_path_337" fill="#8E8E8E" stroke="none" d="M92,767c4.418,0,8,3.582,8,8h1c0,-5.523,-3.477,-10,-9,-10S83,769.477,83,775h1C84,770.582,87.582,767,92,767z"></path><path id="kity_path_339" fill="#EEE" stroke="none" d="M107.812,781.896l-6.75,6.75l-4.5,-4.5L98.25,782.459l2.812,2.803l5.062,-5.053L107.812,781.896z" display="none"></path><path id="kity_path_338" fill="url(#kity_linearGradient_17)" stroke="none" d="M92,764C86.477,764,82,768.477,82,774c0,5.523,4.477,10,10,10s10,-4.477,10,-10C102,768.477,97.523,764,92,764zM92,782c-4.418,0,-8,-3.582,-8,-8s3.582,-8,8,-8s8,3.582,8,8S96.418,782,92,782z"></path></g></g><g id="minder_node28"><g id="node_expander25" display="none" style="cursor: pointer;"><path id="kity_path_711" fill="white" stroke="gray" d="M76.5,807.5A6,6,0,1,1,64.5,807.5A6,6,0,1,1,76.5,807.5"></path><path id="kity_path_712" fill="none" stroke="gray"></path></g><path id="node_outline26" fill="none" stroke="none" d="M81.5,794.5h99a5,5,0,0,1,5,5v16a5,5,0,0,1,-5,5h-99a5,5,0,0,1,-5,-5v-16a5,5,0,0,1,5,-5z"></path><g id="node_text26" fill="black"><text id="kity_text_219" text-rendering="inherit" font-size="12" dy=".8em" y="799.7000000476837" x="106.5">其它活动信息</text></g><g id="node_progress6"><path id="kity_path_341" fill="#FFED83" stroke="none" d="M101,808A9,9,0,1,1,83,808A9,9,0,1,1,101,808"></path><path id="kity_path_342" fill="#43BC00" stroke="none" d="M92,808L101,808A9,9,0,0,0,100.31491579260158,804.5558491087141A9,9,0,0,0,98.36396103067892,801.636038969321L92,808z"></path><path id="kity_path_343" fill="#8E8E8E" stroke="none" d="M92,801c4.418,0,8,3.582,8,8h1c0,-5.523,-3.477,-10,-9,-10S83,803.477,83,809h1C84,804.582,87.582,801,92,801z"></path><path id="kity_path_345" fill="#EEE" stroke="none" d="M107.812,815.896l-6.75,6.75l-4.5,-4.5L98.25,816.459l2.812,2.803l5.062,-5.053L107.812,815.896z" display="none"></path><path id="kity_path_344" fill="url(#kity_linearGradient_17)" stroke="none" d="M92,798C86.477,798,82,802.477,82,808c0,5.523,4.477,10,10,10s10,-4.477,10,-10C102,802.477,97.523,798,92,798zM92,816c-4.418,0,-8,-3.582,-8,-8s3.582,-8,8,-8s8,3.582,8,8S96.418,816,92,816z"></path></g></g><g id="minder_node29"><g id="node_expander28" style="cursor: pointer;"><path id="kity_path_720" fill="white" stroke="gray" d="M48.5,837.5A6,6,0,1,1,36.5,837.5A6,6,0,1,1,48.5,837.5"></path><path id="kity_path_721" fill="none" stroke="gray" d="M38,837.5L47,837.5"></path></g><path id="node_outline29" fill="#00b0f0" stroke="none" d="M53.5,828.5h26a5,5,0,0,1,5,5v8a5,5,0,0,1,-5,5h-26a5,5,0,0,1,-5,-5v-8a5,5,0,0,1,5,-5z"></path><g id="node_text29" fill="#ffffff"><text id="kity_text_225" text-rendering="inherit" font-size="12" dy=".8em" font-weight="bold" y="829.7000000476837" x="53.5">消息</text></g></g><g id="minder_node30"><g id="node_expander27" display="none" style="cursor: pointer;"><path id="kity_path_717" fill="white" stroke="gray" d="M76.5,867.5A6,6,0,1,1,64.5,867.5A6,6,0,1,1,76.5,867.5"></path><path id="kity_path_718" fill="none" stroke="gray"></path></g><path id="node_outline28" fill="none" stroke="none" d="M81.5,854.5h75a5,5,0,0,1,5,5v16a5,5,0,0,1,-5,5h-75a5,5,0,0,1,-5,-5v-16a5,5,0,0,1,5,-5z"></path><g id="node_text28" fill="black"><text id="kity_text_223" text-rendering="inherit" font-size="12" dy=".8em" y="859.7000000476837" x="106.5">消息盒子</text></g><g id="node_progress7"><path id="kity_path_347" fill="#FFED83" stroke="none" d="M101,868A9,9,0,1,1,83,868A9,9,0,1,1,101,868"></path><path id="kity_path_348" fill="#43BC00" stroke="none" d="M92,868L101,868A9,9,0,0,0,95.4441508912858,859.6850842073984A9,9,0,0,0,85.63603896932108,861.636038969321L92,868z"></path><path id="kity_path_349" fill="#8E8E8E" stroke="none" d="M92,861c4.418,0,8,3.582,8,8h1c0,-5.523,-3.477,-10,-9,-10S83,863.477,83,869h1C84,864.582,87.582,861,92,861z"></path><path id="kity_path_351" fill="#EEE" stroke="none" d="M107.812,875.896l-6.75,6.75l-4.5,-4.5L98.25,876.459l2.812,2.803l5.062,-5.053L107.812,875.896z" display="none"></path><path id="kity_path_350" fill="url(#kity_linearGradient_17)" stroke="none" d="M92,858C86.477,858,82,862.477,82,868c0,5.523,4.477,10,10,10s10,-4.477,10,-10C102,862.477,97.523,858,92,858zM92,876c-4.418,0,-8,-3.582,-8,-8s3.582,-8,8,-8s8,3.582,8,8S96.418,876,92,876z"></path></g></g><g id="minder_node31"><g id="node_expander57" style="cursor: pointer;"><path id="kity_path_807" fill="white" stroke="gray" d="M48.5,897.5A6,6,0,1,1,36.5,897.5A6,6,0,1,1,48.5,897.5"></path><path id="kity_path_808" fill="none" stroke="gray" d="M38,897.5L47,897.5"></path></g><path id="node_outline58" fill="#00b0f0" stroke="none" d="M53.5,888.5h25a5,5,0,0,1,5,5v8a5,5,0,0,1,-5,5h-25a5,5,0,0,1,-5,-5v-8a5,5,0,0,1,5,-5z"></path><g id="node_text58" fill="#ffffff"><text id="kity_text_283" text-rendering="inherit" font-size="12" dy=".8em" font-weight="bold" y="889.7000000476837" x="53.5">我的</text></g></g><g id="minder_node32"><g id="node_expander52" style="cursor: pointer;"><path id="kity_path_792" fill="white" stroke="gray" d="M76.5,923.5A6,6,0,1,1,64.5,923.5A6,6,0,1,1,76.5,923.5"></path><path id="kity_path_793" fill="none" stroke="gray" d="M66,923.5L75,923.5"></path></g><path id="node_outline53" fill="#7030a0" stroke="none" d="M81.5,914.5h37a5,5,0,0,1,5,5v8a5,5,0,0,1,-5,5h-37a5,5,0,0,1,-5,-5v-8a5,5,0,0,1,5,-5z"></path><g id="node_text53" fill="#ffffff"><text id="kity_text_273" text-rendering="inherit" font-size="12" dy=".8em" font-weight="bold" y="915.7000000476837" x="81.5">登录后</text></g></g><g id="minder_node33"><g id="node_expander40" style="cursor: pointer;"><path id="kity_path_756" fill="white" stroke="gray" d="M104.5,953.5A6,6,0,1,1,92.5,953.5A6,6,0,1,1,104.5,953.5"></path><path id="kity_path_757" fill="none" stroke="gray" d="M94,953.5L103,953.5"></path></g><path id="node_outline41" fill="#f79646" stroke="none" d="M109.5,940.5h98a5,5,0,0,1,5,5v16a5,5,0,0,1,-5,5h-98a5,5,0,0,1,-5,-5v-16a5,5,0,0,1,5,-5z"></path><g id="node_text41" fill="#ffffff"><text id="kity_text_249" text-rendering="inherit" font-size="12" dy=".8em" font-weight="bold" y="945.7000000476837" x="134.5">用户基本信息</text></g><g id="node_progress18"><path id="kity_path_413" fill="#FFED83" stroke="none" d="M129,954A9,9,0,1,1,111,954A9,9,0,1,1,129,954"></path><path id="kity_path_414" fill="#43BC00" stroke="none" d="M120,954L129,954A9,9,0,0,0,113.63603896932108,947.636038969321A9,9,0,0,0,120,963L120,954z"></path><path id="kity_path_415" fill="#8E8E8E" stroke="none" d="M120,947c4.418,0,8,3.582,8,8h1c0,-5.523,-3.477,-10,-9,-10S111,949.477,111,955h1C112,950.582,115.582,947,120,947z"></path><path id="kity_path_417" fill="#EEE" stroke="none" d="M135.812,961.896l-6.75,6.75l-4.5,-4.5L126.25,962.459l2.812,2.803l5.062,-5.053L135.812,961.896z" display="none"></path><path id="kity_path_416" fill="url(#kity_linearGradient_17)" stroke="none" d="M120,944C114.477,944,110,948.477,110,954c0,5.523,4.477,10,10,10s10,-4.477,10,-10C130,948.477,125.523,944,120,944zM120,962c-4.418,0,-8,-3.582,-8,-8s3.582,-8,8,-8s8,3.582,8,8S124.418,962,120,962z"></path></g></g><g id="minder_node34"><g id="node_expander39" style="cursor: pointer;"><path id="kity_path_753" fill="white" stroke="gray" d="M132.5,983.5A6,6,0,1,1,120.5,983.5A6,6,0,1,1,132.5,983.5"></path><path id="kity_path_754" fill="none" stroke="gray" d="M122,983.5L131,983.5"></path></g><path id="node_outline40" fill="#4e6128" stroke="none" d="M137.5,974.5h26a5,5,0,0,1,5,5v8a5,5,0,0,1,-5,5h-26a5,5,0,0,1,-5,-5v-8a5,5,0,0,1,5,-5z"></path><g id="node_text40" fill="#ffffff"><text id="kity_text_247" text-rendering="inherit" font-size="12" dy=".8em" font-weight="bold" y="975.7000000476837" x="137.5">设置</text></g></g><g id="minder_node35"><g id="node_expander29" display="none" style="cursor: pointer;"><path id="kity_path_723" fill="white" stroke="gray" d="M160.5,1013.5A6,6,0,1,1,148.5,1013.5A6,6,0,1,1,160.5,1013.5"></path><path id="kity_path_724" fill="none" stroke="gray"></path></g><path id="node_outline30" fill="none" stroke="none" d="M165.5,1000.5h75a5,5,0,0,1,5,5v16a5,5,0,0,1,-5,5h-75a5,5,0,0,1,-5,-5v-16a5,5,0,0,1,5,-5z"></path><g id="node_text30" fill="black"><text id="kity_text_227" text-rendering="inherit" font-size="12" dy=".8em" y="1005.7000000476837" x="190.5">账户设置</text></g><g id="node_progress8"><path id="kity_path_353" fill="#FFED83" stroke="none" d="M185,1014A9,9,0,1,1,167,1014A9,9,0,1,1,185,1014"></path><path id="kity_path_354" fill="#43BC00" stroke="none" d="M176,1014L185,1014A9,9,0,0,0,184.31491579260157,1010.5558491087141A9,9,0,0,0,182.36396103067892,1007.636038969321L176,1014z"></path><path id="kity_path_355" fill="#8E8E8E" stroke="none" d="M176,1007c4.418,0,8,3.582,8,8h1c0,-5.523,-3.477,-10,-9,-10S167,1009.477,167,1015h1C168,1010.582,171.582,1007,176,1007z"></path><path id="kity_path_357" fill="#EEE" stroke="none" d="M191.812,1021.896l-6.75,6.75l-4.5,-4.5L182.25,1022.459l2.812,2.803l5.062,-5.053L191.812,1021.896z" display="none"></path><path id="kity_path_356" fill="url(#kity_linearGradient_17)" stroke="none" d="M176,1004C170.477,1004,166,1008.477,166,1014c0,5.523,4.477,10,10,10s10,-4.477,10,-10C186,1008.477,181.523,1004,176,1004zM176,1022c-4.418,0,-8,-3.582,-8,-8s3.582,-8,8,-8s8,3.582,8,8S180.418,1022,176,1022z"></path></g></g><g id="minder_node36"><g id="node_expander30" display="none" style="cursor: pointer;"><path id="kity_path_726" fill="white" stroke="gray" d="M160.5,1047.5A6,6,0,1,1,148.5,1047.5A6,6,0,1,1,160.5,1047.5"></path><path id="kity_path_727" fill="none" stroke="gray"></path></g><path id="node_outline31" fill="none" stroke="none" d="M165.5,1034.5h86a5,5,0,0,1,5,5v16a5,5,0,0,1,-5,5h-86a5,5,0,0,1,-5,-5v-16a5,5,0,0,1,5,-5z"></path><g id="node_text31" fill="black"><text id="kity_text_229" text-rendering="inherit" font-size="12" dy=".8em" y="1039.7000000476837" x="190.5">我的二维码</text></g><g id="node_progress9"><path id="kity_path_359" fill="#FFED83" stroke="none" d="M185,1048A9,9,0,1,1,167,1048A9,9,0,1,1,185,1048"></path><path id="kity_path_360" fill="#43BC00" stroke="none" d="M176,1048L185,1048A9,9,0,0,0,184.31491579260157,1044.5558491087143A9,9,0,0,0,182.36396103067892,1041.6360389693211L176,1048z"></path><path id="kity_path_361" fill="#8E8E8E" stroke="none" d="M176,1041c4.418,0,8,3.582,8,8h1c0,-5.523,-3.477,-10,-9,-10S167,1043.477,167,1049h1C168,1044.582,171.582,1041,176,1041z"></path><path id="kity_path_363" fill="#EEE" stroke="none" d="M191.812,1055.896l-6.75,6.75l-4.5,-4.5L182.25,1056.459l2.812,2.803l5.062,-5.053L191.812,1055.896z" display="none"></path><path id="kity_path_362" fill="url(#kity_linearGradient_17)" stroke="none" d="M176,1038C170.477,1038,166,1042.477,166,1048c0,5.523,4.477,10,10,10s10,-4.477,10,-10C186,1042.477,181.523,1038,176,1038zM176,1056c-4.418,0,-8,-3.582,-8,-8s3.582,-8,8,-8s8,3.582,8,8S180.418,1056,176,1056z"></path></g></g><g id="minder_node37"><g id="node_expander31" display="none" style="cursor: pointer;"><path id="kity_path_729" fill="white" stroke="gray" d="M160.5,1081.5A6,6,0,1,1,148.5,1081.5A6,6,0,1,1,160.5,1081.5"></path><path id="kity_path_730" fill="none" stroke="gray"></path></g><path id="node_outline32" fill="none" stroke="none" d="M165.5,1068.5h75a5,5,0,0,1,5,5v16a5,5,0,0,1,-5,5h-75a5,5,0,0,1,-5,-5v-16a5,5,0,0,1,5,-5z"></path><g id="node_text32" fill="black"><text id="kity_text_231" text-rendering="inherit" font-size="12" dy=".8em" y="1073.7000000476837" x="190.5">通用设置</text></g><g id="node_progress10"><path id="kity_path_365" fill="#FFED83" stroke="none" d="M185,1082A9,9,0,1,1,167,1082A9,9,0,1,1,185,1082"></path><path id="kity_path_366" fill="#43BC00" stroke="none" d="M176,1082L185,1082A9,9,0,0,0,184.31491579260157,1078.5558491087143A9,9,0,0,0,182.36396103067892,1075.6360389693211L176,1082z"></path><path id="kity_path_367" fill="#8E8E8E" stroke="none" d="M176,1075c4.418,0,8,3.582,8,8h1c0,-5.523,-3.477,-10,-9,-10S167,1077.477,167,1083h1C168,1078.582,171.582,1075,176,1075z"></path><path id="kity_path_369" fill="#EEE" stroke="none" d="M191.812,1089.896l-6.75,6.75l-4.5,-4.5L182.25,1090.459l2.812,2.803l5.062,-5.053L191.812,1089.896z" display="none"></path><path id="kity_path_368" fill="url(#kity_linearGradient_17)" stroke="none" d="M176,1072C170.477,1072,166,1076.477,166,1082c0,5.523,4.477,10,10,10s10,-4.477,10,-10C186,1076.477,181.523,1072,176,1072zM176,1090c-4.418,0,-8,-3.582,-8,-8s3.582,-8,8,-8s8,3.582,8,8S180.418,1090,176,1090z"></path></g></g><g id="minder_node38"><g id="node_expander32" display="none" style="cursor: pointer;"><path id="kity_path_732" fill="white" stroke="gray" d="M160.5,1115.5A6,6,0,1,1,148.5,1115.5A6,6,0,1,1,160.5,1115.5"></path><path id="kity_path_733" fill="none" stroke="gray"></path></g><path id="node_outline33" fill="none" stroke="none" d="M165.5,1102.5h75a5,5,0,0,1,5,5v16a5,5,0,0,1,-5,5h-75a5,5,0,0,1,-5,-5v-16a5,5,0,0,1,5,-5z"></path><g id="node_text33" fill="black"><text id="kity_text_233" text-rendering="inherit" font-size="12" dy=".8em" y="1107.7000000476837" x="190.5">通知提醒</text></g><g id="node_progress11"><path id="kity_path_371" fill="#FFED83" stroke="none" d="M185,1116A9,9,0,1,1,167,1116A9,9,0,1,1,185,1116"></path><path id="kity_path_372" fill="#43BC00" stroke="none" d="M176,1116L185,1116A9,9,0,0,0,184.31491579260157,1112.5558491087143A9,9,0,0,0,182.36396103067892,1109.6360389693211L176,1116z"></path><path id="kity_path_373" fill="#8E8E8E" stroke="none" d="M176,1109c4.418,0,8,3.582,8,8h1c0,-5.523,-3.477,-10,-9,-10S167,1111.477,167,1117h1C168,1112.582,171.582,1109,176,1109z"></path><path id="kity_path_375" fill="#EEE" stroke="none" d="M191.812,1123.896l-6.75,6.75l-4.5,-4.5L182.25,1124.459l2.812,2.803l5.062,-5.053L191.812,1123.896z" display="none"></path><path id="kity_path_374" fill="url(#kity_linearGradient_17)" stroke="none" d="M176,1106C170.477,1106,166,1110.477,166,1116c0,5.523,4.477,10,10,10s10,-4.477,10,-10C186,1110.477,181.523,1106,176,1106zM176,1124c-4.418,0,-8,-3.582,-8,-8s3.582,-8,8,-8s8,3.582,8,8S180.418,1124,176,1124z"></path></g></g><g id="minder_node39"><g id="node_expander33" display="none" style="cursor: pointer;"><path id="kity_path_735" fill="white" stroke="gray" d="M160.5,1149.5A6,6,0,1,1,148.5,1149.5A6,6,0,1,1,160.5,1149.5"></path><path id="kity_path_736" fill="none" stroke="gray"></path></g><path id="node_outline34" fill="none" stroke="none" d="M165.5,1136.5h75a5,5,0,0,1,5,5v16a5,5,0,0,1,-5,5h-75a5,5,0,0,1,-5,-5v-16a5,5,0,0,1,5,-5z"></path><g id="node_text34" fill="black"><text id="kity_text_235" text-rendering="inherit" font-size="12" dy=".8em" y="1141.7000000476837" x="190.5">清除缓存</text></g><g id="node_progress12"><path id="kity_path_377" fill="#FFED83" stroke="none" d="M185,1150A9,9,0,1,1,167,1150A9,9,0,1,1,185,1150"></path><path id="kity_path_378" fill="#43BC00" stroke="none" d="M176,1150L185,1150A9,9,0,0,0,184.31491579260157,1146.5558491087143A9,9,0,0,0,182.36396103067892,1143.6360389693211L176,1150z"></path><path id="kity_path_379" fill="#8E8E8E" stroke="none" d="M176,1143c4.418,0,8,3.582,8,8h1c0,-5.523,-3.477,-10,-9,-10S167,1145.477,167,1151h1C168,1146.582,171.582,1143,176,1143z"></path><path id="kity_path_381" fill="#EEE" stroke="none" d="M191.812,1157.896l-6.75,6.75l-4.5,-4.5L182.25,1158.459l2.812,2.803l5.062,-5.053L191.812,1157.896z" display="none"></path><path id="kity_path_380" fill="url(#kity_linearGradient_17)" stroke="none" d="M176,1140C170.477,1140,166,1144.477,166,1150c0,5.523,4.477,10,10,10s10,-4.477,10,-10C186,1144.477,181.523,1140,176,1140zM176,1158c-4.418,0,-8,-3.582,-8,-8s3.582,-8,8,-8s8,3.582,8,8S180.418,1158,176,1158z"></path></g></g><g id="minder_node40"><g id="node_expander34" display="none" style="cursor: pointer;"><path id="kity_path_738" fill="white" stroke="gray" d="M160.5,1183.5A6,6,0,1,1,148.5,1183.5A6,6,0,1,1,160.5,1183.5"></path><path id="kity_path_739" fill="none" stroke="gray"></path></g><path id="node_outline35" fill="none" stroke="none" d="M165.5,1170.5h74a5,5,0,0,1,5,5v16a5,5,0,0,1,-5,5h-74a5,5,0,0,1,-5,-5v-16a5,5,0,0,1,5,-5z"></path><g id="node_text35" fill="black"><text id="kity_text_237" text-rendering="inherit" font-size="12" dy=".8em" y="1175.7000000476837" x="190.5">图片质量</text></g><g id="node_progress13"><path id="kity_path_383" fill="#FFED83" stroke="none" d="M185,1184A9,9,0,1,1,167,1184A9,9,0,1,1,185,1184"></path><path id="kity_path_384" fill="#43BC00" stroke="none" d="M176,1184L185,1184A9,9,0,0,0,184.31491579260157,1180.5558491087143A9,9,0,0,0,182.36396103067892,1177.6360389693211L176,1184z"></path><path id="kity_path_385" fill="#8E8E8E" stroke="none" d="M176,1177c4.418,0,8,3.582,8,8h1c0,-5.523,-3.477,-10,-9,-10S167,1179.477,167,1185h1C168,1180.582,171.582,1177,176,1177z"></path><path id="kity_path_387" fill="#EEE" stroke="none" d="M191.812,1191.896l-6.75,6.75l-4.5,-4.5L182.25,1192.459l2.812,2.803l5.062,-5.053L191.812,1191.896z" display="none"></path><path id="kity_path_386" fill="url(#kity_linearGradient_17)" stroke="none" d="M176,1174C170.477,1174,166,1178.477,166,1184c0,5.523,4.477,10,10,10s10,-4.477,10,-10C186,1178.477,181.523,1174,176,1174zM176,1192c-4.418,0,-8,-3.582,-8,-8s3.582,-8,8,-8s8,3.582,8,8S180.418,1192,176,1192z"></path></g></g><g id="minder_node41"><g id="node_expander35" display="none" style="cursor: pointer;"><path id="kity_path_741" fill="white" stroke="gray" d="M160.5,1217.5A6,6,0,1,1,148.5,1217.5A6,6,0,1,1,160.5,1217.5"></path><path id="kity_path_742" fill="none" stroke="gray"></path></g><path id="node_outline36" fill="none" stroke="none" d="M165.5,1204.5h50a5,5,0,0,1,5,5v16a5,5,0,0,1,-5,5h-50a5,5,0,0,1,-5,-5v-16a5,5,0,0,1,5,-5z"></path><g id="node_text36" fill="black"><text id="kity_text_239" text-rendering="inherit" font-size="12" dy=".8em" y="1209.7000000476837" x="190.5">隐私</text></g><g id="node_progress14"><path id="kity_path_389" fill="#FFED83" stroke="none" d="M185,1218A9,9,0,1,1,167,1218A9,9,0,1,1,185,1218"></path><path id="kity_path_390" fill="#43BC00" stroke="none" d="M176,1218L185,1218A9,9,0,0,0,184.31491579260157,1214.5558491087143A9,9,0,0,0,182.36396103067892,1211.6360389693211L176,1218z"></path><path id="kity_path_391" fill="#8E8E8E" stroke="none" d="M176,1211c4.418,0,8,3.582,8,8h1c0,-5.523,-3.477,-10,-9,-10S167,1213.477,167,1219h1C168,1214.582,171.582,1211,176,1211z"></path><path id="kity_path_393" fill="#EEE" stroke="none" d="M191.812,1225.896l-6.75,6.75l-4.5,-4.5L182.25,1226.459l2.812,2.803l5.062,-5.053L191.812,1225.896z" display="none"></path><path id="kity_path_392" fill="url(#kity_linearGradient_17)" stroke="none" d="M176,1208C170.477,1208,166,1212.477,166,1218c0,5.523,4.477,10,10,10s10,-4.477,10,-10C186,1212.477,181.523,1208,176,1208zM176,1226c-4.418,0,-8,-3.582,-8,-8s3.582,-8,8,-8s8,3.582,8,8S180.418,1226,176,1226z"></path></g></g><g id="minder_node42"><g id="node_expander36" display="none" style="cursor: pointer;"><path id="kity_path_744" fill="white" stroke="gray" d="M160.5,1251.5A6,6,0,1,1,148.5,1251.5A6,6,0,1,1,160.5,1251.5"></path><path id="kity_path_745" fill="none" stroke="gray"></path></g><path id="node_outline37" fill="none" stroke="none" d="M165.5,1238.5h75a5,5,0,0,1,5,5v16a5,5,0,0,1,-5,5h-75a5,5,0,0,1,-5,-5v-16a5,5,0,0,1,5,-5z"></path><g id="node_text37" fill="black"><text id="kity_text_241" text-rendering="inherit" font-size="12" dy=".8em" y="1243.7000000476837" x="190.5">用户协议</text></g><g id="node_progress15"><path id="kity_path_395" fill="#FFED83" stroke="none" d="M185,1252A9,9,0,1,1,167,1252A9,9,0,1,1,185,1252"></path><path id="kity_path_396" fill="#43BC00" stroke="none" d="M176,1252L185,1252A9,9,0,0,0,167.68508420739843,1248.5558491087143A9,9,0,0,0,182.36396103067892,1258.3639610306789L176,1252z"></path><path id="kity_path_397" fill="#8E8E8E" stroke="none" d="M176,1245c4.418,0,8,3.582,8,8h1c0,-5.523,-3.477,-10,-9,-10S167,1247.477,167,1253h1C168,1248.582,171.582,1245,176,1245z"></path><path id="kity_path_399" fill="#EEE" stroke="none" d="M191.812,1259.896l-6.75,6.75l-4.5,-4.5L182.25,1260.459l2.812,2.803l5.062,-5.053L191.812,1259.896z" display="none"></path><path id="kity_path_398" fill="url(#kity_linearGradient_17)" stroke="none" d="M176,1242C170.477,1242,166,1246.477,166,1252c0,5.523,4.477,10,10,10s10,-4.477,10,-10C186,1246.477,181.523,1242,176,1242zM176,1260c-4.418,0,-8,-3.582,-8,-8s3.582,-8,8,-8s8,3.582,8,8S180.418,1260,176,1260z"></path></g></g><g id="minder_node43"><g id="node_expander37" display="none" style="cursor: pointer;"><path id="kity_path_747" fill="white" stroke="gray" d="M160.5,1285.5A6,6,0,1,1,148.5,1285.5A6,6,0,1,1,160.5,1285.5"></path><path id="kity_path_748" fill="none" stroke="gray"></path></g><path id="node_outline38" fill="none" stroke="none" d="M165.5,1272.5h51a5,5,0,0,1,5,5v16a5,5,0,0,1,-5,5h-51a5,5,0,0,1,-5,-5v-16a5,5,0,0,1,5,-5z"></path><g id="node_text38" fill="black"><text id="kity_text_243" text-rendering="inherit" font-size="12" dy=".8em" y="1277.7000000476837" x="190.5">关于</text></g><g id="node_progress16"><path id="kity_path_401" fill="#FFED83" stroke="none" d="M185,1286A9,9,0,1,1,167,1286A9,9,0,1,1,185,1286"></path><path id="kity_path_402" fill="#43BC00" stroke="none" d="M176,1286L185,1286A9,9,0,0,0,184.31491579260157,1282.5558491087143A9,9,0,0,0,182.36396103067892,1279.6360389693211L176,1286z"></path><path id="kity_path_403" fill="#8E8E8E" stroke="none" d="M176,1279c4.418,0,8,3.582,8,8h1c0,-5.523,-3.477,-10,-9,-10S167,1281.477,167,1287h1C168,1282.582,171.582,1279,176,1279z"></path><path id="kity_path_405" fill="#EEE" stroke="none" d="M191.812,1293.896l-6.75,6.75l-4.5,-4.5L182.25,1294.459l2.812,2.803l5.062,-5.053L191.812,1293.896z" display="none"></path><path id="kity_path_404" fill="url(#kity_linearGradient_17)" stroke="none" d="M176,1276C170.477,1276,166,1280.477,166,1286c0,5.523,4.477,10,10,10s10,-4.477,10,-10C186,1280.477,181.523,1276,176,1276zM176,1294c-4.418,0,-8,-3.582,-8,-8s3.582,-8,8,-8s8,3.582,8,8S180.418,1294,176,1294z"></path></g></g><g id="minder_node44"><g id="node_expander38" display="none" style="cursor: pointer;"><path id="kity_path_750" fill="white" stroke="gray" d="M160.5,1319.5A6,6,0,1,1,148.5,1319.5A6,6,0,1,1,160.5,1319.5"></path><path id="kity_path_751" fill="none" stroke="gray"></path></g><path id="node_outline39" fill="none" stroke="none" d="M165.5,1306.5h50a5,5,0,0,1,5,5v16a5,5,0,0,1,-5,5h-50a5,5,0,0,1,-5,-5v-16a5,5,0,0,1,5,-5z"></path><g id="node_text39" fill="black"><text id="kity_text_245" text-rendering="inherit" font-size="12" dy=".8em" y="1311.7000000476837" x="190.5">注销</text></g><g id="node_progress17"><path id="kity_path_407" fill="#FFED83" stroke="none" d="M185,1320A9,9,0,1,1,167,1320A9,9,0,1,1,185,1320"></path><path id="kity_path_408" fill="#43BC00" stroke="none" d="M176,1320L185,1320A9,9,0,0,1,167,1320A9,9,0,0,1,185,1320L176,1320z"></path><path id="kity_path_409" fill="#8E8E8E" stroke="none" d="M176,1313c4.418,0,8,3.582,8,8h1c0,-5.523,-3.477,-10,-9,-10S167,1315.477,167,1321h1C168,1316.582,171.582,1313,176,1313z"></path><path id="kity_path_411" fill="#EEE" stroke="none" d="M181.812,1317.896l-6.75,6.75l-4.5,-4.5L172.25,1318.459l2.812,2.803l5.062,-5.053L181.812,1317.896z"></path><path id="kity_path_410" fill="url(#kity_linearGradient_17)" stroke="none" d="M176,1310C170.477,1310,166,1314.477,166,1320c0,5.523,4.477,10,10,10s10,-4.477,10,-10C186,1314.477,181.523,1310,176,1310zM176,1328c-4.418,0,-8,-3.582,-8,-8s3.582,-8,8,-8s8,3.582,8,8S180.418,1328,176,1328z"></path></g></g><g id="minder_node45"><g id="node_expander41" display="none" style="cursor: pointer;"><path id="kity_path_759" fill="white" stroke="gray" d="M104.5,1353.5A6,6,0,1,1,92.5,1353.5A6,6,0,1,1,104.5,1353.5"></path><path id="kity_path_760" fill="none" stroke="gray"></path></g><path id="node_outline42" fill="none" stroke="none" d="M109.5,1340.5h75a5,5,0,0,1,5,5v16a5,5,0,0,1,-5,5h-75a5,5,0,0,1,-5,-5v-16a5,5,0,0,1,5,-5z"></path><g id="node_text42" fill="black"><text id="kity_text_251" text-rendering="inherit" font-size="12" dy=".8em" y="1345.7000000476837" x="134.5">悬赏清单</text></g><g id="node_progress19"><path id="kity_path_419" fill="#FFED83" stroke="none" d="M129,1354A9,9,0,1,1,111,1354A9,9,0,1,1,129,1354"></path><path id="kity_path_420" fill="#43BC00" stroke="none" d="M120,1354L129,1354A9,9,0,0,0,128.31491579260157,1350.5558491087143A9,9,0,0,0,126.36396103067892,1347.6360389693211L120,1354z"></path><path id="kity_path_421" fill="#8E8E8E" stroke="none" d="M120,1347c4.418,0,8,3.582,8,8h1c0,-5.523,-3.477,-10,-9,-10S111,1349.477,111,1355h1C112,1350.582,115.582,1347,120,1347z"></path><path id="kity_path_423" fill="#EEE" stroke="none" d="M135.812,1361.896l-6.75,6.75l-4.5,-4.5L126.25,1362.459l2.812,2.803l5.062,-5.053L135.812,1361.896z" display="none"></path><path id="kity_path_422" fill="url(#kity_linearGradient_17)" stroke="none" d="M120,1344C114.477,1344,110,1348.477,110,1354c0,5.523,4.477,10,10,10s10,-4.477,10,-10C130,1348.477,125.523,1344,120,1344zM120,1362c-4.418,0,-8,-3.582,-8,-8s3.582,-8,8,-8s8,3.582,8,8S124.418,1362,120,1362z"></path></g></g><g id="minder_node46"><g id="node_expander42" display="none" style="cursor: pointer;"><path id="kity_path_762" fill="white" stroke="gray" d="M104.5,1387.5A6,6,0,1,1,92.5,1387.5A6,6,0,1,1,104.5,1387.5"></path><path id="kity_path_763" fill="none" stroke="gray"></path></g><path id="node_outline43" fill="none" stroke="none" d="M109.5,1374.5h86a5,5,0,0,1,5,5v16a5,5,0,0,1,-5,5h-86a5,5,0,0,1,-5,-5v-16a5,5,0,0,1,5,-5z"></path><g id="node_text43" fill="black"><text id="kity_text_253" text-rendering="inherit" font-size="12" dy=".8em" y="1379.7000000476837" x="134.5">发布的悬赏</text></g><g id="node_progress20"><path id="kity_path_425" fill="#FFED83" stroke="none" d="M129,1388A9,9,0,1,1,111,1388A9,9,0,1,1,129,1388"></path><path id="kity_path_426" fill="#43BC00" stroke="none" d="M120,1388L129,1388A9,9,0,0,0,128.31491579260157,1384.5558491087143A9,9,0,0,0,126.36396103067892,1381.6360389693211L120,1388z"></path><path id="kity_path_427" fill="#8E8E8E" stroke="none" d="M120,1381c4.418,0,8,3.582,8,8h1c0,-5.523,-3.477,-10,-9,-10S111,1383.477,111,1389h1C112,1384.582,115.582,1381,120,1381z"></path><path id="kity_path_429" fill="#EEE" stroke="none" d="M135.812,1395.896l-6.75,6.75l-4.5,-4.5L126.25,1396.459l2.812,2.803l5.062,-5.053L135.812,1395.896z" display="none"></path><path id="kity_path_428" fill="url(#kity_linearGradient_17)" stroke="none" d="M120,1378C114.477,1378,110,1382.477,110,1388c0,5.523,4.477,10,10,10s10,-4.477,10,-10C130,1382.477,125.523,1378,120,1378zM120,1396c-4.418,0,-8,-3.582,-8,-8s3.582,-8,8,-8s8,3.582,8,8S124.418,1396,120,1396z"></path></g></g><g id="minder_node47"><g id="node_expander43" display="none" style="cursor: pointer;"><path id="kity_path_765" fill="white" stroke="gray" d="M104.5,1421.5A6,6,0,1,1,92.5,1421.5A6,6,0,1,1,104.5,1421.5"></path><path id="kity_path_766" fill="none" stroke="gray"></path></g><path id="node_outline44" fill="none" stroke="none" d="M109.5,1408.5h86a5,5,0,0,1,5,5v16a5,5,0,0,1,-5,5h-86a5,5,0,0,1,-5,-5v-16a5,5,0,0,1,5,-5z"></path><g id="node_text44" fill="black"><text id="kity_text_255" text-rendering="inherit" font-size="12" dy=".8em" y="1413.7000000476837" x="134.5">完成的悬赏</text></g><g id="node_progress21"><path id="kity_path_431" fill="#FFED83" stroke="none" d="M129,1422A9,9,0,1,1,111,1422A9,9,0,1,1,129,1422"></path><path id="kity_path_432" fill="#43BC00" stroke="none" d="M120,1422L129,1422A9,9,0,0,0,128.31491579260157,1418.5558491087143A9,9,0,0,0,126.36396103067892,1415.6360389693211L120,1422z"></path><path id="kity_path_433" fill="#8E8E8E" stroke="none" d="M120,1415c4.418,0,8,3.582,8,8h1c0,-5.523,-3.477,-10,-9,-10S111,1417.477,111,1423h1C112,1418.582,115.582,1415,120,1415z"></path><path id="kity_path_435" fill="#EEE" stroke="none" d="M135.812,1429.896l-6.75,6.75l-4.5,-4.5L126.25,1430.459l2.812,2.803l5.062,-5.053L135.812,1429.896z" display="none"></path><path id="kity_path_434" fill="url(#kity_linearGradient_17)" stroke="none" d="M120,1412C114.477,1412,110,1416.477,110,1422c0,5.523,4.477,10,10,10s10,-4.477,10,-10C130,1416.477,125.523,1412,120,1412zM120,1430c-4.418,0,-8,-3.582,-8,-8s3.582,-8,8,-8s8,3.582,8,8S124.418,1430,120,1430z"></path></g></g><g id="minder_node48"><g id="node_expander44" display="none" style="cursor: pointer;"><path id="kity_path_768" fill="white" stroke="gray" d="M104.5,1455.5A6,6,0,1,1,92.5,1455.5A6,6,0,1,1,104.5,1455.5"></path><path id="kity_path_769" fill="none" stroke="gray"></path></g><path id="node_outline45" fill="none" stroke="none" d="M109.5,1442.5h85a5,5,0,0,1,5,5v16a5,5,0,0,1,-5,5h-85a5,5,0,0,1,-5,-5v-16a5,5,0,0,1,5,-5z"></path><g id="node_text45" fill="black"><text id="kity_text_257" text-rendering="inherit" font-size="12" dy=".8em" y="1447.7000000476837" x="134.5">收藏的悬赏</text></g><g id="node_progress22"><path id="kity_path_437" fill="#FFED83" stroke="none" d="M129,1456A9,9,0,1,1,111,1456A9,9,0,1,1,129,1456"></path><path id="kity_path_438" fill="#43BC00" stroke="none" d="M120,1456L129,1456A9,9,0,0,0,128.31491579260157,1452.5558491087143A9,9,0,0,0,126.36396103067892,1449.6360389693211L120,1456z"></path><path id="kity_path_439" fill="#8E8E8E" stroke="none" d="M120,1449c4.418,0,8,3.582,8,8h1c0,-5.523,-3.477,-10,-9,-10S111,1451.477,111,1457h1C112,1452.582,115.582,1449,120,1449z"></path><path id="kity_path_441" fill="#EEE" stroke="none" d="M135.812,1463.896l-6.75,6.75l-4.5,-4.5L126.25,1464.459l2.812,2.803l5.062,-5.053L135.812,1463.896z" display="none"></path><path id="kity_path_440" fill="url(#kity_linearGradient_17)" stroke="none" d="M120,1446C114.477,1446,110,1450.477,110,1456c0,5.523,4.477,10,10,10s10,-4.477,10,-10C130,1450.477,125.523,1446,120,1446zM120,1464c-4.418,0,-8,-3.582,-8,-8s3.582,-8,8,-8s8,3.582,8,8S124.418,1464,120,1464z"></path></g></g><g id="minder_node49"><g id="node_expander45" display="none" style="cursor: pointer;"><path id="kity_path_771" fill="white" stroke="gray" d="M104.5,1489.5A6,6,0,1,1,92.5,1489.5A6,6,0,1,1,104.5,1489.5"></path><path id="kity_path_772" fill="none" stroke="gray"></path></g><path id="node_outline46" fill="none" stroke="none" d="M109.5,1476.5h51a5,5,0,0,1,5,5v16a5,5,0,0,1,-5,5h-51a5,5,0,0,1,-5,-5v-16a5,5,0,0,1,5,-5z"></path><g id="node_text46" fill="black"><text id="kity_text_259" text-rendering="inherit" font-size="12" dy=".8em" y="1481.7000000476837" x="134.5">积分</text></g><g id="node_progress23"><path id="kity_path_443" fill="#FFED83" stroke="none" d="M129,1490A9,9,0,1,1,111,1490A9,9,0,1,1,129,1490"></path><path id="kity_path_444" fill="#43BC00" stroke="none" d="M120,1490L129,1490A9,9,0,0,0,128.31491579260157,1486.5558491087143A9,9,0,0,0,126.36396103067892,1483.6360389693211L120,1490z"></path><path id="kity_path_445" fill="#8E8E8E" stroke="none" d="M120,1483c4.418,0,8,3.582,8,8h1c0,-5.523,-3.477,-10,-9,-10S111,1485.477,111,1491h1C112,1486.582,115.582,1483,120,1483z"></path><path id="kity_path_447" fill="#EEE" stroke="none" d="M135.812,1497.896l-6.75,6.75l-4.5,-4.5L126.25,1498.459l2.812,2.803l5.062,-5.053L135.812,1497.896z" display="none"></path><path id="kity_path_446" fill="url(#kity_linearGradient_17)" stroke="none" d="M120,1480C114.477,1480,110,1484.477,110,1490c0,5.523,4.477,10,10,10s10,-4.477,10,-10C130,1484.477,125.523,1480,120,1480zM120,1498c-4.418,0,-8,-3.582,-8,-8s3.582,-8,8,-8s8,3.582,8,8S124.418,1498,120,1498z"></path></g></g><g id="minder_node50"><g id="node_expander46" display="none" style="cursor: pointer;"><path id="kity_path_774" fill="white" stroke="gray" d="M104.5,1523.5A6,6,0,1,1,92.5,1523.5A6,6,0,1,1,104.5,1523.5"></path><path id="kity_path_775" fill="none" stroke="gray"></path></g><path id="node_outline47" fill="none" stroke="none" d="M109.5,1510.5h51a5,5,0,0,1,5,5v16a5,5,0,0,1,-5,5h-51a5,5,0,0,1,-5,-5v-16a5,5,0,0,1,5,-5z"></path><g id="node_text47" fill="black"><text id="kity_text_261" text-rendering="inherit" font-size="12" dy=".8em" y="1515.7000000476837" x="134.5">评论</text></g><g id="node_progress24"><path id="kity_path_449" fill="#FFED83" stroke="none" d="M129,1524A9,9,0,1,1,111,1524A9,9,0,1,1,129,1524"></path><path id="kity_path_450" fill="#43BC00" stroke="none" d="M120,1524L129,1524A9,9,0,0,0,128.31491579260157,1520.5558491087143A9,9,0,0,0,126.36396103067892,1517.6360389693211L120,1524z"></path><path id="kity_path_451" fill="#8E8E8E" stroke="none" d="M120,1517c4.418,0,8,3.582,8,8h1c0,-5.523,-3.477,-10,-9,-10S111,1519.477,111,1525h1C112,1520.582,115.582,1517,120,1517z"></path><path id="kity_path_453" fill="#EEE" stroke="none" d="M135.812,1531.896l-6.75,6.75l-4.5,-4.5L126.25,1532.459l2.812,2.803l5.062,-5.053L135.812,1531.896z" display="none"></path><path id="kity_path_452" fill="url(#kity_linearGradient_17)" stroke="none" d="M120,1514C114.477,1514,110,1518.477,110,1524c0,5.523,4.477,10,10,10s10,-4.477,10,-10C130,1518.477,125.523,1514,120,1514zM120,1532c-4.418,0,-8,-3.582,-8,-8s3.582,-8,8,-8s8,3.582,8,8S124.418,1532,120,1532z"></path></g></g><g id="minder_node51"><g id="node_expander47" display="none" style="cursor: pointer;"><path id="kity_path_777" fill="white" stroke="gray" d="M104.5,1557.5A6,6,0,1,1,92.5,1557.5A6,6,0,1,1,104.5,1557.5"></path><path id="kity_path_778" fill="none" stroke="gray"></path></g><path id="node_outline48" fill="none" stroke="none" d="M109.5,1544.5h51a5,5,0,0,1,5,5v16a5,5,0,0,1,-5,5h-51a5,5,0,0,1,-5,-5v-16a5,5,0,0,1,5,-5z"></path><g id="node_text48" fill="black"><text id="kity_text_263" text-rendering="inherit" font-size="12" dy=".8em" y="1549.7000000476837" x="134.5">历史</text></g><g id="node_progress25"><path id="kity_path_455" fill="#FFED83" stroke="none" d="M129,1558A9,9,0,1,1,111,1558A9,9,0,1,1,129,1558"></path><path id="kity_path_456" fill="#43BC00" stroke="none" d="M120,1558L129,1558A9,9,0,0,0,128.31491579260157,1554.5558491087143A9,9,0,0,0,126.36396103067892,1551.6360389693211L120,1558z"></path><path id="kity_path_457" fill="#8E8E8E" stroke="none" d="M120,1551c4.418,0,8,3.582,8,8h1c0,-5.523,-3.477,-10,-9,-10S111,1553.477,111,1559h1C112,1554.582,115.582,1551,120,1551z"></path><path id="kity_path_459" fill="#EEE" stroke="none" d="M135.812,1565.896l-6.75,6.75l-4.5,-4.5L126.25,1566.459l2.812,2.803l5.062,-5.053L135.812,1565.896z" display="none"></path><path id="kity_path_458" fill="url(#kity_linearGradient_17)" stroke="none" d="M120,1548C114.477,1548,110,1552.477,110,1558c0,5.523,4.477,10,10,10s10,-4.477,10,-10C130,1552.477,125.523,1548,120,1548zM120,1566c-4.418,0,-8,-3.582,-8,-8s3.582,-8,8,-8s8,3.582,8,8S124.418,1566,120,1566z"></path></g></g><g id="minder_node52"><g id="node_expander48" display="none" style="cursor: pointer;"><path id="kity_path_780" fill="white" stroke="gray" d="M104.5,1591.5A6,6,0,1,1,92.5,1591.5A6,6,0,1,1,104.5,1591.5"></path><path id="kity_path_781" fill="none" stroke="gray"></path></g><path id="node_outline49" fill="none" stroke="none" d="M109.5,1578.5h74a5,5,0,0,1,5,5v16a5,5,0,0,1,-5,5h-74a5,5,0,0,1,-5,-5v-16a5,5,0,0,1,5,-5z"></path><g id="node_text49" fill="black"><text id="kity_text_265" text-rendering="inherit" font-size="12" dy=".8em" y="1583.7000000476837" x="134.5">常用标签</text></g><g id="node_progress26"><path id="kity_path_461" fill="#FFED83" stroke="none" d="M129,1592A9,9,0,1,1,111,1592A9,9,0,1,1,129,1592"></path><path id="kity_path_462" fill="#43BC00" stroke="none" d="M120,1592L129,1592A9,9,0,0,0,128.31491579260157,1588.5558491087143A9,9,0,0,0,126.36396103067892,1585.6360389693211L120,1592z"></path><path id="kity_path_463" fill="#8E8E8E" stroke="none" d="M120,1585c4.418,0,8,3.582,8,8h1c0,-5.523,-3.477,-10,-9,-10S111,1587.477,111,1593h1C112,1588.582,115.582,1585,120,1585z"></path><path id="kity_path_465" fill="#EEE" stroke="none" d="M135.812,1599.896l-6.75,6.75l-4.5,-4.5L126.25,1600.459l2.812,2.803l5.062,-5.053L135.812,1599.896z" display="none"></path><path id="kity_path_464" fill="url(#kity_linearGradient_17)" stroke="none" d="M120,1582C114.477,1582,110,1586.477,110,1592c0,5.523,4.477,10,10,10s10,-4.477,10,-10C130,1586.477,125.523,1582,120,1582zM120,1600c-4.418,0,-8,-3.582,-8,-8s3.582,-8,8,-8s8,3.582,8,8S124.418,1600,120,1600z"></path></g></g><g id="minder_node53"><g id="node_expander49" display="none" style="cursor: pointer;"><path id="kity_path_783" fill="white" stroke="gray" d="M104.5,1625.5A6,6,0,1,1,92.5,1625.5A6,6,0,1,1,104.5,1625.5"></path><path id="kity_path_784" fill="none" stroke="gray"></path></g><path id="node_outline50" fill="none" stroke="none" d="M109.5,1612.5h75a5,5,0,0,1,5,5v16a5,5,0,0,1,-5,5h-75a5,5,0,0,1,-5,-5v-16a5,5,0,0,1,5,-5z"></path><g id="node_text50" fill="black"><text id="kity_text_267" text-rendering="inherit" font-size="12" dy=".8em" y="1617.7000000476837" x="134.5">实名认证</text></g><g id="node_progress27"><path id="kity_path_467" fill="#FFED83" stroke="none" d="M129,1626A9,9,0,1,1,111,1626A9,9,0,1,1,129,1626"></path><path id="kity_path_468" fill="#43BC00" stroke="none" d="M120,1626L129,1626A9,9,0,0,0,128.31491579260157,1622.5558491087143A9,9,0,0,0,126.36396103067892,1619.6360389693211L120,1626z"></path><path id="kity_path_469" fill="#8E8E8E" stroke="none" d="M120,1619c4.418,0,8,3.582,8,8h1c0,-5.523,-3.477,-10,-9,-10S111,1621.477,111,1627h1C112,1622.582,115.582,1619,120,1619z"></path><path id="kity_path_471" fill="#EEE" stroke="none" d="M135.812,1633.896l-6.75,6.75l-4.5,-4.5L126.25,1634.459l2.812,2.803l5.062,-5.053L135.812,1633.896z" display="none"></path><path id="kity_path_470" fill="url(#kity_linearGradient_17)" stroke="none" d="M120,1616C114.477,1616,110,1620.477,110,1626c0,5.523,4.477,10,10,10s10,-4.477,10,-10C130,1620.477,125.523,1616,120,1616zM120,1634c-4.418,0,-8,-3.582,-8,-8s3.582,-8,8,-8s8,3.582,8,8S124.418,1634,120,1634z"></path></g></g><g id="minder_node54"><g id="node_expander50" display="none" style="cursor: pointer;"><path id="kity_path_786" fill="white" stroke="gray" d="M104.5,1659.5A6,6,0,1,1,92.5,1659.5A6,6,0,1,1,104.5,1659.5"></path><path id="kity_path_787" fill="none" stroke="gray"></path></g><path id="node_outline51" fill="none" stroke="none" d="M109.5,1646.5h75a5,5,0,0,1,5,5v16a5,5,0,0,1,-5,5h-75a5,5,0,0,1,-5,-5v-16a5,5,0,0,1,5,-5z"></path><g id="node_text51" fill="black"><text id="kity_text_269" text-rendering="inherit" font-size="12" dy=".8em" y="1651.7000000476837" x="134.5">安全认证</text></g><g id="node_progress28"><path id="kity_path_473" fill="#FFED83" stroke="none" d="M129,1660A9,9,0,1,1,111,1660A9,9,0,1,1,129,1660"></path><path id="kity_path_474" fill="#43BC00" stroke="none" d="M120,1660L129,1660A9,9,0,0,0,128.31491579260157,1656.5558491087143A9,9,0,0,0,126.36396103067892,1653.6360389693211L120,1660z"></path><path id="kity_path_475" fill="#8E8E8E" stroke="none" d="M120,1653c4.418,0,8,3.582,8,8h1c0,-5.523,-3.477,-10,-9,-10S111,1655.477,111,1661h1C112,1656.582,115.582,1653,120,1653z"></path><path id="kity_path_477" fill="#EEE" stroke="none" d="M135.812,1667.896l-6.75,6.75l-4.5,-4.5L126.25,1668.459l2.812,2.803l5.062,-5.053L135.812,1667.896z" display="none"></path><path id="kity_path_476" fill="url(#kity_linearGradient_17)" stroke="none" d="M120,1650C114.477,1650,110,1654.477,110,1660c0,5.523,4.477,10,10,10s10,-4.477,10,-10C130,1654.477,125.523,1650,120,1650zM120,1668c-4.418,0,-8,-3.582,-8,-8s3.582,-8,8,-8s8,3.582,8,8S124.418,1668,120,1668z"></path></g></g><g id="minder_node55"><g id="node_expander51" display="none" style="cursor: pointer;"><path id="kity_path_789" fill="white" stroke="gray" d="M104.5,1693.5A6,6,0,1,1,92.5,1693.5A6,6,0,1,1,104.5,1693.5"></path><path id="kity_path_790" fill="none" stroke="gray"></path></g><path id="node_outline52" fill="none" stroke="none" d="M109.5,1680.5h75a5,5,0,0,1,5,5v16a5,5,0,0,1,-5,5h-75a5,5,0,0,1,-5,-5v-16a5,5,0,0,1,5,-5z"></path><g id="node_text52" fill="black"><text id="kity_text_271" text-rendering="inherit" font-size="12" dy=".8em" y="1685.7000000476837" x="134.5">联系客服</text></g><g id="node_progress29"><path id="kity_path_479" fill="#FFED83" stroke="none" d="M129,1694A9,9,0,1,1,111,1694A9,9,0,1,1,129,1694"></path><path id="kity_path_480" fill="#43BC00" stroke="none" d="M120,1694L129,1694A9,9,0,0,0,128.31491579260157,1690.5558491087143A9,9,0,0,0,126.36396103067892,1687.6360389693211L120,1694z"></path><path id="kity_path_481" fill="#8E8E8E" stroke="none" d="M120,1687c4.418,0,8,3.582,8,8h1c0,-5.523,-3.477,-10,-9,-10S111,1689.477,111,1695h1C112,1690.582,115.582,1687,120,1687z"></path><path id="kity_path_483" fill="#EEE" stroke="none" d="M135.812,1701.896l-6.75,6.75l-4.5,-4.5L126.25,1702.459l2.812,2.803l5.062,-5.053L135.812,1701.896z" display="none"></path><path id="kity_path_482" fill="url(#kity_linearGradient_17)" stroke="none" d="M120,1684C114.477,1684,110,1688.477,110,1694c0,5.523,4.477,10,10,10s10,-4.477,10,-10C130,1688.477,125.523,1684,120,1684zM120,1702c-4.418,0,-8,-3.582,-8,-8s3.582,-8,8,-8s8,3.582,8,8S124.418,1702,120,1702z"></path></g></g><g id="minder_node56"><g id="node_expander56" style="cursor: pointer;"><path id="kity_path_804" fill="white" stroke="gray" d="M76.5,1723.5A6,6,0,1,1,64.5,1723.5A6,6,0,1,1,76.5,1723.5"></path><path id="kity_path_805" fill="none" stroke="gray" d="M66,1723.5L75,1723.5"></path></g><path id="node_outline57" fill="#7030a0" stroke="none" d="M81.5,1714.5h38a5,5,0,0,1,5,5v8a5,5,0,0,1,-5,5h-38a5,5,0,0,1,-5,-5v-8a5,5,0,0,1,5,-5z"></path><g id="node_text57" fill="#ffffff"><text id="kity_text_281" text-rendering="inherit" font-size="12" dy=".8em" font-weight="bold" y="1715.7000000476837" x="81.5">未登录</text></g></g><g id="minder_node57"><g id="node_expander53" display="none" style="cursor: pointer;"><path id="kity_path_795" fill="white" stroke="gray" d="M104.5,1753.5A6,6,0,1,1,92.5,1753.5A6,6,0,1,1,104.5,1753.5"></path><path id="kity_path_796" fill="none" stroke="gray"></path></g><path id="node_outline54" fill="none" stroke="none" d="M109.5,1740.5h51a5,5,0,0,1,5,5v16a5,5,0,0,1,-5,5h-51a5,5,0,0,1,-5,-5v-16a5,5,0,0,1,5,-5z"></path><g id="node_text54" fill="black"><text id="kity_text_275" text-rendering="inherit" font-size="12" dy=".8em" y="1745.7000000476837" x="134.5">登录</text></g><g id="node_progress30"><path id="kity_path_485" fill="#FFED83" stroke="none" d="M129,1754A9,9,0,1,1,111,1754A9,9,0,1,1,129,1754"></path><path id="kity_path_486" fill="#43BC00" stroke="none" d="M120,1754L129,1754A9,9,0,0,1,111,1754A9,9,0,0,1,129,1754L120,1754z"></path><path id="kity_path_487" fill="#8E8E8E" stroke="none" d="M120,1747c4.418,0,8,3.582,8,8h1c0,-5.523,-3.477,-10,-9,-10S111,1749.477,111,1755h1C112,1750.582,115.582,1747,120,1747z"></path><path id="kity_path_489" fill="#EEE" stroke="none" d="M125.812,1751.896l-6.75,6.75l-4.5,-4.5L116.25,1752.459l2.812,2.803l5.062,-5.053L125.812,1751.896z"></path><path id="kity_path_488" fill="url(#kity_linearGradient_17)" stroke="none" d="M120,1744C114.477,1744,110,1748.477,110,1754c0,5.523,4.477,10,10,10s10,-4.477,10,-10C130,1748.477,125.523,1744,120,1744zM120,1762c-4.418,0,-8,-3.582,-8,-8s3.582,-8,8,-8s8,3.582,8,8S124.418,1762,120,1762z"></path></g></g><g id="minder_node58"><g id="node_expander54" display="none" style="cursor: pointer;"><path id="kity_path_798" fill="white" stroke="gray" d="M104.5,1787.5A6,6,0,1,1,92.5,1787.5A6,6,0,1,1,104.5,1787.5"></path><path id="kity_path_799" fill="none" stroke="gray"></path></g><path id="node_outline55" fill="none" stroke="none" d="M109.5,1774.5h51a5,5,0,0,1,5,5v16a5,5,0,0,1,-5,5h-51a5,5,0,0,1,-5,-5v-16a5,5,0,0,1,5,-5z"></path><g id="node_text55" fill="black"><text id="kity_text_277" text-rendering="inherit" font-size="12" dy=".8em" y="1779.7000000476837" x="134.5">注册</text></g><g id="node_progress31"><path id="kity_path_491" fill="#FFED83" stroke="none" d="M129,1788A9,9,0,1,1,111,1788A9,9,0,1,1,129,1788"></path><path id="kity_path_492" fill="#43BC00" stroke="none" d="M120,1788L129,1788A9,9,0,0,0,111.68508420739842,1784.5558491087143A9,9,0,0,0,126.36396103067892,1794.3639610306789L120,1788z"></path><path id="kity_path_493" fill="#8E8E8E" stroke="none" d="M120,1781c4.418,0,8,3.582,8,8h1c0,-5.523,-3.477,-10,-9,-10S111,1783.477,111,1789h1C112,1784.582,115.582,1781,120,1781z"></path><path id="kity_path_495" fill="#EEE" stroke="none" d="M135.812,1795.896l-6.75,6.75l-4.5,-4.5L126.25,1796.459l2.812,2.803l5.062,-5.053L135.812,1795.896z" display="none"></path><path id="kity_path_494" fill="url(#kity_linearGradient_17)" stroke="none" d="M120,1778C114.477,1778,110,1782.477,110,1788c0,5.523,4.477,10,10,10s10,-4.477,10,-10C130,1782.477,125.523,1778,120,1778zM120,1796c-4.418,0,-8,-3.582,-8,-8s3.582,-8,8,-8s8,3.582,8,8S124.418,1796,120,1796z"></path></g></g><g id="minder_node59"><g id="node_expander55" display="none" style="cursor: pointer;"><path id="kity_path_801" fill="white" stroke="gray" d="M104.5,1821.5A6,6,0,1,1,92.5,1821.5A6,6,0,1,1,104.5,1821.5"></path><path id="kity_path_802" fill="none" stroke="gray"></path></g><path id="node_outline56" fill="none" stroke="none" d="M109.5,1808.5h50a5,5,0,0,1,5,5v16a5,5,0,0,1,-5,5h-50a5,5,0,0,1,-5,-5v-16a5,5,0,0,1,5,-5z"></path><g id="node_text56" fill="black"><text id="kity_text_279" text-rendering="inherit" font-size="12" dy=".8em" y="1813.7000000476837" x="134.5">设置</text></g><g id="node_progress32"><path id="kity_path_497" fill="#FFED83" stroke="none" d="M129,1822A9,9,0,1,1,111,1822A9,9,0,1,1,129,1822"></path><path id="kity_path_498" fill="#43BC00" stroke="none" d="M120,1822L129,1822A9,9,0,0,0,128.31491579260157,1818.5558491087143A9,9,0,0,0,126.36396103067892,1815.6360389693211L120,1822z"></path><path id="kity_path_499" fill="#8E8E8E" stroke="none" d="M120,1815c4.418,0,8,3.582,8,8h1c0,-5.523,-3.477,-10,-9,-10S111,1817.477,111,1823h1C112,1818.582,115.582,1815,120,1815z"></path><path id="kity_path_501" fill="#EEE" stroke="none" d="M135.812,1829.896l-6.75,6.75l-4.5,-4.5L126.25,1830.459l2.812,2.803l5.062,-5.053L135.812,1829.896z" display="none"></path><path id="kity_path_500" fill="url(#kity_linearGradient_17)" stroke="none" d="M120,1812C114.477,1812,110,1816.477,110,1822c0,5.523,4.477,10,10,10s10,-4.477,10,-10C130,1816.477,125.523,1812,120,1812zM120,1830c-4.418,0,-8,-3.582,-8,-8s3.582,-8,8,-8s8,3.582,8,8S124.418,1830,120,1830z"></path></g></g><g id="minder_node60"><g id="node_expander58" display="none" style="cursor: pointer;"><path id="kity_path_810" fill="white" stroke="gray" d="M48.5,1855.5A6,6,0,1,1,36.5,1855.5A6,6,0,1,1,48.5,1855.5"></path><path id="kity_path_811" fill="none" stroke="gray"></path></g><path id="node_outline59" fill="#548dd4" stroke="none" d="M53.5,1842.5h51a5,5,0,0,1,5,5v16a5,5,0,0,1,-5,5h-51a5,5,0,0,1,-5,-5v-16a5,5,0,0,1,5,-5z"></path><g id="node_text59" fill="white"><text id="kity_text_285" text-rendering="inherit" font-size="12" dy=".8em" font-weight="bold" y="1847.7000000476837" x="78.5">搜索</text></g><g id="node_progress33"><path id="kity_path_503" fill="#FFED83" stroke="none" d="M73,1856A9,9,0,1,1,55,1856A9,9,0,1,1,73,1856"></path><path id="kity_path_504" fill="#43BC00" stroke="none" d="M64,1856L73,1856A9,9,0,0,0,70.36396103067892,1849.6360389693211A9,9,0,0,0,64,1847L64,1856z"></path><path id="kity_path_505" fill="#8E8E8E" stroke="none" d="M64,1849c4.418,0,8,3.582,8,8h1c0,-5.523,-3.477,-10,-9,-10S55,1851.477,55,1857h1C56,1852.582,59.582,1849,64,1849z"></path><path id="kity_path_507" fill="#EEE" stroke="none" d="M79.812,1863.896l-6.75,6.75l-4.5,-4.5L70.25,1864.459l2.812,2.803l5.062,-5.053L79.812,1863.896z" display="none"></path><path id="kity_path_506" fill="url(#kity_linearGradient_17)" stroke="none" d="M64,1846C58.477000000000004,1846,54,1850.477,54,1856c0,5.523,4.477,10,10,10s10,-4.477,10,-10C74,1850.477,69.523,1846,64,1846zM64,1864c-4.418,0,-8,-3.582,-8,-8s3.582,-8,8,-8s8,3.582,8,8S68.418,1864,64,1864z"></path></g></g><g id="minder_node61"><g id="node_expander59" display="none" style="cursor: pointer;"><path id="kity_path_813" fill="white" stroke="gray" d="M48.5,1889.5A6,6,0,1,1,36.5,1889.5A6,6,0,1,1,48.5,1889.5"></path><path id="kity_path_814" fill="none" stroke="gray"></path></g><path id="node_outline60" fill="#76923c" stroke="none" d="M53.5,1876.5h50a5,5,0,0,1,5,5v16a5,5,0,0,1,-5,5h-50a5,5,0,0,1,-5,-5v-16a5,5,0,0,1,5,-5z"></path><g id="node_text60" fill="white"><text id="kity_text_287" text-rendering="inherit" font-size="12" dy=".8em" font-weight="bold" y="1881.7000000476837" x="78.5">通知</text></g><g id="node_progress34"><path id="kity_path_509" fill="#FFED83" stroke="none" d="M73,1890A9,9,0,1,1,55,1890A9,9,0,1,1,73,1890"></path><path id="kity_path_510" fill="#43BC00" stroke="none" d="M64,1890L73,1890A9,9,0,0,0,72.31491579260158,1886.5558491087143A9,9,0,0,0,70.36396103067892,1883.6360389693211L64,1890z"></path><path id="kity_path_511" fill="#8E8E8E" stroke="none" d="M64,1883c4.418,0,8,3.582,8,8h1c0,-5.523,-3.477,-10,-9,-10S55,1885.477,55,1891h1C56,1886.582,59.582,1883,64,1883z"></path><path id="kity_path_513" fill="#EEE" stroke="none" d="M79.812,1897.896l-6.75,6.75l-4.5,-4.5L70.25,1898.459l2.812,2.803l5.062,-5.053L79.812,1897.896z" display="none"></path><path id="kity_path_512" fill="url(#kity_linearGradient_17)" stroke="none" d="M64,1880C58.477000000000004,1880,54,1884.477,54,1890c0,5.523,4.477,10,10,10s10,-4.477,10,-10C74,1884.477,69.523,1880,64,1880zM64,1898c-4.418,0,-8,-3.582,-8,-8s3.582,-8,8,-8s8,3.582,8,8S68.418,1898,64,1898z"></path></g></g><g id="minder_node62"><g id="node_expander70" style="cursor: pointer;"><path id="kity_path_846" fill="white" stroke="gray" d="M347,59.5A6,6,0,1,1,335,59.5A6,6,0,1,1,347,59.5"></path><path id="kity_path_847" fill="none" stroke="gray" d="M336.5,59.5L345.5,59.5"></path></g><path id="node_outline71" fill="#4bacc6" stroke="rgb(123, 115, 191)" d="M295.5,66.5h91a3,3,0,0,1,3,3v20a3,3,0,0,1,-3,3h-91a3,3,0,0,1,-3,-3v-20a3,3,0,0,1,3,-3z" stroke-width="1"></path><g id="node_text71" fill="#ffffff"><text id="kity_text_309" text-rendering="inherit" font-size="14" dy=".8em" font-weight="bold" y="70.40000009536743" x="312.5">中心菜单</text></g></g><g id="minder_node63"><g id="node_expander61" display="none" style="cursor: pointer;"><path id="kity_path_819" fill="white" stroke="gray" d="M320.5,117.5A6,6,0,1,1,308.5,117.5A6,6,0,1,1,320.5,117.5"></path><path id="kity_path_820" fill="none" stroke="gray"></path></g><path id="node_outline62" fill="none" stroke="none" d="M325.5,104.5h74a5,5,0,0,1,5,5v16a5,5,0,0,1,-5,5h-74a5,5,0,0,1,-5,-5v-16a5,5,0,0,1,5,-5z"></path><g id="node_text62" fill="black"><text id="kity_text_291" text-rendering="inherit" font-size="12" dy=".8em" y="109.70000004768372" x="350.5">时间信息</text></g><g id="node_progress35"><path id="kity_path_515" fill="#FFED83" stroke="none" d="M345,118A9,9,0,1,1,327,118A9,9,0,1,1,345,118"></path><path id="kity_path_516" fill="#43BC00" stroke="none" d="M336,118L345,118A9,9,0,0,1,327,118A9,9,0,0,1,345,118L336,118z"></path><path id="kity_path_517" fill="#8E8E8E" stroke="none" d="M336,111c4.418,0,8,3.582,8,8h1c0,-5.523,-3.477,-10,-9,-10S327,113.477,327,119h1C328,114.582,331.582,111,336,111z"></path><path id="kity_path_519" fill="#EEE" stroke="none" d="M341.812,115.896l-6.75,6.75l-4.5,-4.5L332.25,116.459l2.812,2.803l5.062,-5.053L341.812,115.896z"></path><path id="kity_path_518" fill="url(#kity_linearGradient_17)" stroke="none" d="M336,108C330.477,108,326,112.477,326,118c0,5.523,4.477,10,10,10s10,-4.477,10,-10C346,112.477,341.523,108,336,108zM336,126c-4.418,0,-8,-3.582,-8,-8s3.582,-8,8,-8s8,3.582,8,8S340.418,126,336,126z"></path></g></g><g id="minder_node64"><g id="node_expander62" display="none" style="cursor: pointer;"><path id="kity_path_822" fill="white" stroke="gray" d="M320.5,151.5A6,6,0,1,1,308.5,151.5A6,6,0,1,1,320.5,151.5"></path><path id="kity_path_823" fill="none" stroke="gray"></path></g><path id="node_outline63" fill="none" stroke="none" d="M325.5,138.5h74a5,5,0,0,1,5,5v16a5,5,0,0,1,-5,5h-74a5,5,0,0,1,-5,-5v-16a5,5,0,0,1,5,-5z"></path><g id="node_text63" fill="black"><text id="kity_text_293" text-rendering="inherit" font-size="12" dy=".8em" y="143.70000004768372" x="350.5">发布悬赏</text></g><g id="node_progress36"><path id="kity_path_521" fill="#FFED83" stroke="none" d="M345,152A9,9,0,1,1,327,152A9,9,0,1,1,345,152"></path><path id="kity_path_522" fill="#43BC00" stroke="none" d="M336,152L345,152A9,9,0,0,0,327.6850842073984,148.5558491087142A9,9,0,0,0,342.3639610306789,158.36396103067892L336,152z"></path><path id="kity_path_523" fill="#8E8E8E" stroke="none" d="M336,145c4.418,0,8,3.582,8,8h1c0,-5.523,-3.477,-10,-9,-10S327,147.477,327,153h1C328,148.582,331.582,145,336,145z"></path><path id="kity_path_525" fill="#EEE" stroke="none" d="M351.812,159.896l-6.75,6.75l-4.5,-4.5L342.25,160.459l2.812,2.803l5.062,-5.053L351.812,159.896z" display="none"></path><path id="kity_path_524" fill="url(#kity_linearGradient_17)" stroke="none" d="M336,142C330.477,142,326,146.477,326,152c0,5.523,4.477,10,10,10s10,-4.477,10,-10C346,146.477,341.523,142,336,142zM336,160c-4.418,0,-8,-3.582,-8,-8s3.582,-8,8,-8s8,3.582,8,8S340.418,160,336,160z"></path></g></g><g id="minder_node65"><g id="node_expander63" display="none" style="cursor: pointer;"><path id="kity_path_825" fill="white" stroke="gray" d="M320.5,185.5A6,6,0,1,1,308.5,185.5A6,6,0,1,1,320.5,185.5"></path><path id="kity_path_826" fill="none" stroke="gray"></path></g><path id="node_outline64" fill="none" stroke="none" d="M325.5,172.5h74a5,5,0,0,1,5,5v16a5,5,0,0,1,-5,5h-74a5,5,0,0,1,-5,-5v-16a5,5,0,0,1,5,-5z"></path><g id="node_text64" fill="black"><text id="kity_text_295" text-rendering="inherit" font-size="12" dy=".8em" y="177.70000004768372" x="350.5">隐身模式</text></g><g id="node_progress37"><path id="kity_path_527" fill="#FFED83" stroke="none" d="M345,186A9,9,0,1,1,327,186A9,9,0,1,1,345,186"></path><path id="kity_path_528" fill="#43BC00" stroke="none" d="M336,186L345,186A9,9,0,0,0,344.3149157926016,182.5558491087142A9,9,0,0,0,342.3639610306789,179.63603896932108L336,186z"></path><path id="kity_path_529" fill="#8E8E8E" stroke="none" d="M336,179c4.418,0,8,3.582,8,8h1c0,-5.523,-3.477,-10,-9,-10S327,181.477,327,187h1C328,182.582,331.582,179,336,179z"></path><path id="kity_path_531" fill="#EEE" stroke="none" d="M351.812,193.896l-6.75,6.75l-4.5,-4.5L342.25,194.459l2.812,2.803l5.062,-5.053L351.812,193.896z" display="none"></path><path id="kity_path_530" fill="url(#kity_linearGradient_17)" stroke="none" d="M336,176C330.477,176,326,180.477,326,186c0,5.523,4.477,10,10,10s10,-4.477,10,-10C346,180.477,341.523,176,336,176zM336,194c-4.418,0,-8,-3.582,-8,-8s3.582,-8,8,-8s8,3.582,8,8S340.418,194,336,194z"></path></g></g><g id="minder_node66"><g id="node_expander64" display="none" style="cursor: pointer;"><path id="kity_path_828" fill="white" stroke="gray" d="M320.5,219.5A6,6,0,1,1,308.5,219.5A6,6,0,1,1,320.5,219.5"></path><path id="kity_path_829" fill="none" stroke="gray"></path></g><path id="node_outline65" fill="none" stroke="none" d="M325.5,206.5h75a5,5,0,0,1,5,5v16a5,5,0,0,1,-5,5h-75a5,5,0,0,1,-5,-5v-16a5,5,0,0,1,5,-5z"></path><g id="node_text65" fill="black"><text id="kity_text_297" text-rendering="inherit" font-size="12" dy=".8em" y="211.70000004768372" x="350.5">夜间模式</text></g><g id="node_progress38"><path id="kity_path_533" fill="#FFED83" stroke="none" d="M345,220A9,9,0,1,1,327,220A9,9,0,1,1,345,220"></path><path id="kity_path_534" fill="#43BC00" stroke="none" d="M336,220L345,220A9,9,0,0,0,344.3149157926016,216.5558491087142A9,9,0,0,0,342.3639610306789,213.63603896932108L336,220z"></path><path id="kity_path_535" fill="#8E8E8E" stroke="none" d="M336,213c4.418,0,8,3.582,8,8h1c0,-5.523,-3.477,-10,-9,-10S327,215.477,327,221h1C328,216.582,331.582,213,336,213z"></path><path id="kity_path_537" fill="#EEE" stroke="none" d="M351.812,227.896l-6.75,6.75l-4.5,-4.5L342.25,228.459l2.812,2.803l5.062,-5.053L351.812,227.896z" display="none"></path><path id="kity_path_536" fill="url(#kity_linearGradient_17)" stroke="none" d="M336,210C330.477,210,326,214.477,326,220c0,5.523,4.477,10,10,10s10,-4.477,10,-10C346,214.477,341.523,210,336,210zM336,228c-4.418,0,-8,-3.582,-8,-8s3.582,-8,8,-8s8,3.582,8,8S340.418,228,336,228z"></path></g></g><g id="minder_node67"><g id="node_expander65" display="none" style="cursor: pointer;"><path id="kity_path_831" fill="white" stroke="gray" d="M320.5,253.5A6,6,0,1,1,308.5,253.5A6,6,0,1,1,320.5,253.5"></path><path id="kity_path_832" fill="none" stroke="gray"></path></g><path id="node_outline66" fill="none" stroke="none" d="M325.5,240.5h73a5,5,0,0,1,5,5v16a5,5,0,0,1,-5,5h-73a5,5,0,0,1,-5,-5v-16a5,5,0,0,1,5,-5z"></path><g id="node_text66" fill="black"><text id="kity_text_299" text-rendering="inherit" font-size="12" dy=".8em" y="245.70000004768372" x="350.5">主题颜色</text></g><g id="node_progress39"><path id="kity_path_539" fill="#FFED83" stroke="none" d="M345,254A9,9,0,1,1,327,254A9,9,0,1,1,345,254"></path><path id="kity_path_540" fill="#43BC00" stroke="none" d="M336,254L345,254A9,9,0,0,0,344.3149157926016,250.5558491087142A9,9,0,0,0,342.3639610306789,247.63603896932108L336,254z"></path><path id="kity_path_541" fill="#8E8E8E" stroke="none" d="M336,247c4.418,0,8,3.582,8,8h1c0,-5.523,-3.477,-10,-9,-10S327,249.477,327,255h1C328,250.582,331.582,247,336,247z"></path><path id="kity_path_543" fill="#EEE" stroke="none" d="M351.812,261.896l-6.75,6.75l-4.5,-4.5L342.25,262.459l2.812,2.803l5.062,-5.053L351.812,261.896z" display="none"></path><path id="kity_path_542" fill="url(#kity_linearGradient_17)" stroke="none" d="M336,244C330.477,244,326,248.477,326,254c0,5.523,4.477,10,10,10s10,-4.477,10,-10C346,248.477,341.523,244,336,244zM336,262c-4.418,0,-8,-3.582,-8,-8s3.582,-8,8,-8s8,3.582,8,8S340.418,262,336,262z"></path></g></g><g id="minder_node68"><g id="node_expander66" display="none" style="cursor: pointer;"><path id="kity_path_834" fill="white" stroke="gray" d="M320.5,287.5A6,6,0,1,1,308.5,287.5A6,6,0,1,1,320.5,287.5"></path><path id="kity_path_835" fill="none" stroke="gray"></path></g><path id="node_outline67" fill="none" stroke="none" d="M325.5,274.5h62a5,5,0,0,1,5,5v16a5,5,0,0,1,-5,5h-62a5,5,0,0,1,-5,-5v-16a5,5,0,0,1,5,-5z"></path><g id="node_text67" fill="black"><text id="kity_text_301" text-rendering="inherit" font-size="12" dy=".8em" y="279.7000000476837" x="350.5">扫一扫</text></g><g id="node_progress40"><path id="kity_path_545" fill="#FFED83" stroke="none" d="M345,288A9,9,0,1,1,327,288A9,9,0,1,1,345,288"></path><path id="kity_path_546" fill="#43BC00" stroke="none" d="M336,288L345,288A9,9,0,0,0,344.3149157926016,284.5558491087142A9,9,0,0,0,342.3639610306789,281.6360389693211L336,288z"></path><path id="kity_path_547" fill="#8E8E8E" stroke="none" d="M336,281c4.418,0,8,3.582,8,8h1c0,-5.523,-3.477,-10,-9,-10S327,283.477,327,289h1C328,284.582,331.582,281,336,281z"></path><path id="kity_path_549" fill="#EEE" stroke="none" d="M351.812,295.896l-6.75,6.75l-4.5,-4.5L342.25,296.459l2.812,2.803l5.062,-5.053L351.812,295.896z" display="none"></path><path id="kity_path_548" fill="url(#kity_linearGradient_17)" stroke="none" d="M336,278C330.477,278,326,282.477,326,288c0,5.523,4.477,10,10,10s10,-4.477,10,-10C346,282.477,341.523,278,336,278zM336,296c-4.418,0,-8,-3.582,-8,-8s3.582,-8,8,-8s8,3.582,8,8S340.418,296,336,296z"></path></g></g><g id="minder_node69"><g id="node_expander67" display="none" style="cursor: pointer;"><path id="kity_path_837" fill="white" stroke="gray" d="M320.5,321.5A6,6,0,1,1,308.5,321.5A6,6,0,1,1,320.5,321.5"></path><path id="kity_path_838" fill="none" stroke="gray"></path></g><path id="node_outline68" fill="none" stroke="none" d="M325.5,308.5h75a5,5,0,0,1,5,5v16a5,5,0,0,1,-5,5h-75a5,5,0,0,1,-5,-5v-16a5,5,0,0,1,5,-5z"></path><g id="node_text68" fill="black"><text id="kity_text_303" text-rendering="inherit" font-size="12" dy=".8em" y="313.7000000476837" x="350.5">分享软件</text></g><g id="node_progress41"><path id="kity_path_551" fill="#FFED83" stroke="none" d="M345,322A9,9,0,1,1,327,322A9,9,0,1,1,345,322"></path><path id="kity_path_552" fill="#43BC00" stroke="none" d="M336,322L345,322A9,9,0,0,0,344.3149157926016,318.5558491087142A9,9,0,0,0,342.3639610306789,315.6360389693211L336,322z"></path><path id="kity_path_553" fill="#8E8E8E" stroke="none" d="M336,315c4.418,0,8,3.582,8,8h1c0,-5.523,-3.477,-10,-9,-10S327,317.477,327,323h1C328,318.582,331.582,315,336,315z"></path><path id="kity_path_555" fill="#EEE" stroke="none" d="M351.812,329.896l-6.75,6.75l-4.5,-4.5L342.25,330.459l2.812,2.803l5.062,-5.053L351.812,329.896z" display="none"></path><path id="kity_path_554" fill="url(#kity_linearGradient_17)" stroke="none" d="M336,312C330.477,312,326,316.477,326,322c0,5.523,4.477,10,10,10s10,-4.477,10,-10C346,316.477,341.523,312,336,312zM336,330c-4.418,0,-8,-3.582,-8,-8s3.582,-8,8,-8s8,3.582,8,8S340.418,330,336,330z"></path></g></g><g id="minder_node70"><g id="node_expander68" display="none" style="cursor: pointer;"><path id="kity_path_840" fill="white" stroke="gray" d="M320.5,355.5A6,6,0,1,1,308.5,355.5A6,6,0,1,1,320.5,355.5"></path><path id="kity_path_841" fill="none" stroke="gray"></path></g><path id="node_outline69" fill="none" stroke="none" d="M325.5,342.5h75a5,5,0,0,1,5,5v16a5,5,0,0,1,-5,5h-75a5,5,0,0,1,-5,-5v-16a5,5,0,0,1,5,-5z"></path><g id="node_text69" fill="black"><text id="kity_text_305" text-rendering="inherit" font-size="12" dy=".8em" y="347.7000000476837" x="350.5">退出软件</text></g><g id="node_progress42"><path id="kity_path_557" fill="#FFED83" stroke="none" d="M345,356A9,9,0,1,1,327,356A9,9,0,1,1,345,356"></path><path id="kity_path_558" fill="#43BC00" stroke="none" d="M336,356L345,356A9,9,0,0,0,344.3149157926016,352.5558491087142A9,9,0,0,0,342.3639610306789,349.6360389693211L336,356z"></path><path id="kity_path_559" fill="#8E8E8E" stroke="none" d="M336,349c4.418,0,8,3.582,8,8h1c0,-5.523,-3.477,-10,-9,-10S327,351.477,327,357h1C328,352.582,331.582,349,336,349z"></path><path id="kity_path_561" fill="#EEE" stroke="none" d="M351.812,363.896l-6.75,6.75l-4.5,-4.5L342.25,364.459l2.812,2.803l5.062,-5.053L351.812,363.896z" display="none"></path><path id="kity_path_560" fill="url(#kity_linearGradient_17)" stroke="none" d="M336,346C330.477,346,326,350.477,326,356c0,5.523,4.477,10,10,10s10,-4.477,10,-10C346,350.477,341.523,346,336,346zM336,364c-4.418,0,-8,-3.582,-8,-8s3.582,-8,8,-8s8,3.582,8,8S340.418,364,336,364z"></path></g></g><g id="minder_node71"><g id="node_expander69" display="none" style="cursor: pointer;"><path id="kity_path_843" fill="white" stroke="gray" d="M320.5,389.5A6,6,0,1,1,308.5,389.5A6,6,0,1,1,320.5,389.5"></path><path id="kity_path_844" fill="none" stroke="gray"></path></g><path id="node_outline70" fill="none" stroke="none" d="M325.5,376.5h75a5,5,0,0,1,5,5v16a5,5,0,0,1,-5,5h-75a5,5,0,0,1,-5,-5v-16a5,5,0,0,1,5,-5z"></path><g id="node_text70" fill="black"><text id="kity_text_307" text-rendering="inherit" font-size="12" dy=".8em" y="381.7000000476837" x="350.5">编辑选项</text></g><g id="node_progress43"><path id="kity_path_563" fill="#FFED83" stroke="none" d="M345,390A9,9,0,1,1,327,390A9,9,0,1,1,345,390"></path><path id="kity_path_564" fill="#43BC00" stroke="none" d="M336,390L345,390A9,9,0,0,0,344.3149157926016,386.5558491087142A9,9,0,0,0,342.3639610306789,383.6360389693211L336,390z"></path><path id="kity_path_565" fill="#8E8E8E" stroke="none" d="M336,383c4.418,0,8,3.582,8,8h1c0,-5.523,-3.477,-10,-9,-10S327,385.477,327,391h1C328,386.582,331.582,383,336,383z"></path><path id="kity_path_567" fill="#EEE" stroke="none" d="M351.812,397.896l-6.75,6.75l-4.5,-4.5L342.25,398.459l2.812,2.803l5.062,-5.053L351.812,397.896z" display="none"></path><path id="kity_path_566" fill="url(#kity_linearGradient_17)" stroke="none" d="M336,380C330.477,380,326,384.477,326,390c0,5.523,4.477,10,10,10s10,-4.477,10,-10C346,384.477,341.523,380,336,380zM336,398c-4.418,0,-8,-3.582,-8,-8s3.582,-8,8,-8s8,3.582,8,8S340.418,398,336,398z"></path></g></g></g></g></svg>